{
	"accessors":[{
		"bufferView":0,
		"type":"SCALAR",
		"componentType":5123,
		"count":2880,
		"byteOffset":0,
		"min":[0],
		"max":[991]
	},
	{
		"bufferView":1,
		"type":"VEC3",
		"componentType":5126,
		"count":992,
		"byteOffset":0,
		"min":[-6.08954381942749,
		-2.461000919342041,
		-1.3547860383987427],
		"max":[2.806507110595703,
		2.364798069000244,
		1.3547860383987427]
	},
	{
		"bufferView":1,
		"type":"VEC3",
		"componentType":5126,
		"count":992,
		"byteOffset":12,
		"min":[-1.0,
		-0.9993867874145508,
		-0.9975719451904297],
		"max":[1.0,
		0.9993871450424194,
		0.9975720047950745]
	},
	{
		"bufferView":1,
		"type":"VEC2",
		"componentType":5126,
		"count":992,
		"byteOffset":24,
		"min":[0.2712180018424988,
		0.04057401418685913],
		"max":[1.0,
		0.6843539476394653]
	},
	{
		"bufferView":2,
		"type":"SCALAR",
		"componentType":5123,
		"count":3420,
		"byteOffset":0,
		"min":[0],
		"max":[669]
	},
	{
		"bufferView":3,
		"type":"VEC3",
		"componentType":5126,
		"count":670,
		"byteOffset":0,
		"min":[-0.7956780195236206,
		-0.7991400361061096,
		-0.799999475479126],
		"max":[0.7956780195236206,
		0.7991400361061096,
		0.799999475479126]
	},
	{
		"bufferView":3,
		"type":"VEC3",
		"componentType":5126,
		"count":670,
		"byteOffset":12,
		"min":[-0.9946794509887695,
		-0.99901282787323,
		-1.0],
		"max":[0.9946794509887695,
		0.99901282787323,
		1.0]
	},
	{
		"bufferView":3,
		"type":"VEC2",
		"componentType":5126,
		"count":670,
		"byteOffset":24,
		"min":[0.0016706462483853102,
		0.00227347481995821],
		"max":[0.9950248599052429,
		0.9950248003005981]
	},
	{
		"bufferView":4,
		"type":"SCALAR",
		"componentType":5123,
		"count":3420,
		"byteOffset":0,
		"min":[0],
		"max":[669]
	},
	{
		"bufferView":5,
		"type":"VEC3",
		"componentType":5126,
		"count":670,
		"byteOffset":0,
		"min":[-0.7956774234771729,
		-0.7991400361061096,
		-0.799999475479126],
		"max":[0.7956774234771729,
		0.7991400361061096,
		0.799999475479126]
	},
	{
		"bufferView":5,
		"type":"VEC3",
		"componentType":5126,
		"count":670,
		"byteOffset":12,
		"min":[-0.9946796894073486,
		-0.99901282787323,
		-1.0],
		"max":[0.9946799278259277,
		0.99901282787323,
		0.9999999403953552]
	},
	{
		"bufferView":5,
		"type":"VEC2",
		"componentType":5126,
		"count":670,
		"byteOffset":24,
		"min":[0.0016706462483853102,
		0.00227347481995821],
		"max":[0.9950248599052429,
		0.9950248003005981]
	},
	{
		"bufferView":6,
		"type":"SCALAR",
		"componentType":5123,
		"count":3420,
		"byteOffset":0,
		"min":[0],
		"max":[669]
	},
	{
		"bufferView":7,
		"type":"VEC3",
		"componentType":5126,
		"count":670,
		"byteOffset":0,
		"min":[-0.7998480200767517,
		-0.7998474836349487,
		-0.7956179976463318],
		"max":[0.7998480200767517,
		0.7998474836349487,
		0.7956179976463318]
	},
	{
		"bufferView":7,
		"type":"VEC3",
		"componentType":5126,
		"count":670,
		"byteOffset":12,
		"min":[-0.9998094439506531,
		-0.9998056292533875,
		-0.9945220947265625],
		"max":[0.9998094439506531,
		0.9998058080673218,
		0.9945219159126282]
	},
	{
		"bufferView":7,
		"type":"VEC2",
		"componentType":5126,
		"count":670,
		"byteOffset":24,
		"min":[0.0016706462483853102,
		0.0022734738886356355],
		"max":[0.9950248599052429,
		0.9950248003005981]
	},
	{
		"bufferView":8,
		"type":"SCALAR",
		"componentType":5123,
		"count":3420,
		"byteOffset":0,
		"min":[0],
		"max":[669]
	},
	{
		"bufferView":9,
		"type":"VEC3",
		"componentType":5126,
		"count":670,
		"byteOffset":0,
		"min":[-0.7995734214782715,
		-0.799573540687561,
		-0.7956179976463318],
		"max":[0.7995734214782715,
		0.799573540687561,
		0.7956179976463318]
	},
	{
		"bufferView":9,
		"type":"VEC3",
		"componentType":5126,
		"count":670,
		"byteOffset":12,
		"min":[-0.9994668960571289,
		-0.9994667768478394,
		-0.9945220947265625],
		"max":[0.9994667768478394,
		0.9994668960571289,
		0.9945218563079834]
	},
	{
		"bufferView":9,
		"type":"VEC2",
		"componentType":5126,
		"count":670,
		"byteOffset":24,
		"min":[0.0016706462483853102,
		0.002273473422974348],
		"max":[0.9950248599052429,
		0.9950248003005981]
	},
	{
		"bufferView":10,
		"type":"SCALAR",
		"componentType":5123,
		"count":3420,
		"byteOffset":0,
		"min":[0],
		"max":[669]
	},
	{
		"bufferView":11,
		"type":"VEC3",
		"componentType":5126,
		"count":670,
		"byteOffset":0,
		"min":[-1.0,
		-1.0,
		-0.9945224523544312],
		"max":[1.0,
		1.0,
		0.9945224523544312]
	},
	{
		"bufferView":11,
		"type":"VEC3",
		"componentType":5126,
		"count":670,
		"byteOffset":12,
		"min":[-0.9999999403953552,
		-1.0,
		-0.9945219159126282],
		"max":[1.0,
		1.0,
		0.9945220351219177]
	},
	{
		"bufferView":11,
		"type":"VEC2",
		"componentType":5126,
		"count":670,
		"byteOffset":24,
		"min":[0.0016706462483853102,
		0.002273473422974348],
		"max":[0.9950248599052429,
		0.9950248003005981]
	},
	{
		"bufferView":12,
		"type":"SCALAR",
		"componentType":5123,
		"count":3420,
		"byteOffset":0,
		"min":[0],
		"max":[669]
	},
	{
		"bufferView":13,
		"type":"VEC3",
		"componentType":5126,
		"count":670,
		"byteOffset":0,
		"min":[-1.0,
		-1.0,
		-0.9945224523544312],
		"max":[1.0,
		1.0,
		0.9945224523544312]
	},
	{
		"bufferView":13,
		"type":"VEC3",
		"componentType":5126,
		"count":670,
		"byteOffset":12,
		"min":[-0.9999999403953552,
		-1.0,
		-0.9945219159126282],
		"max":[1.0,
		1.0,
		0.9945220351219177]
	},
	{
		"bufferView":13,
		"type":"VEC2",
		"componentType":5126,
		"count":670,
		"byteOffset":24,
		"min":[0.0016706462483853102,
		0.002273473422974348],
		"max":[0.9950248599052429,
		0.9950248003005981]
	},
	{
		"bufferView":14,
		"type":"SCALAR",
		"componentType":5123,
		"count":3420,
		"byteOffset":0,
		"min":[0],
		"max":[669]
	},
	{
		"bufferView":15,
		"type":"VEC3",
		"componentType":5126,
		"count":670,
		"byteOffset":0,
		"min":[-0.9861475229263306,
		-0.9861475229263306,
		-0.9807454943656921],
		"max":[0.9861475229263306,
		0.9861475229263306,
		0.9807454943656921]
	},
	{
		"bufferView":15,
		"type":"VEC3",
		"componentType":5126,
		"count":670,
		"byteOffset":12,
		"min":[-1.0,
		-1.0,
		-0.9945217967033386],
		"max":[1.0,
		1.0,
		0.9945220351219177]
	},
	{
		"bufferView":15,
		"type":"VEC2",
		"componentType":5126,
		"count":670,
		"byteOffset":24,
		"min":[0.0016706462483853102,
		0.002273473422974348],
		"max":[0.9950248599052429,
		0.9950248003005981]
	},
	{
		"bufferView":16,
		"type":"SCALAR",
		"componentType":5123,
		"count":3420,
		"byteOffset":0,
		"min":[0],
		"max":[669]
	},
	{
		"bufferView":17,
		"type":"VEC3",
		"componentType":5126,
		"count":670,
		"byteOffset":0,
		"min":[-0.9861469268798828,
		-0.9861470460891724,
		-0.9807454943656921],
		"max":[0.9861469268798828,
		0.9861470460891724,
		0.9807454943656921]
	},
	{
		"bufferView":17,
		"type":"VEC3",
		"componentType":5126,
		"count":670,
		"byteOffset":12,
		"min":[-1.0,
		-1.0,
		-0.9945218563079834],
		"max":[1.0,
		1.0,
		0.9945220351219177]
	},
	{
		"bufferView":17,
		"type":"VEC2",
		"componentType":5126,
		"count":670,
		"byteOffset":24,
		"min":[0.0016706462483853102,
		0.002273473422974348],
		"max":[0.9950248599052429,
		0.9950248003005981]
	},
	{
		"bufferView":18,
		"type":"SCALAR",
		"componentType":5123,
		"count":16764,
		"byteOffset":0,
		"min":[0],
		"max":[5945]
	},
	{
		"bufferView":19,
		"type":"VEC3",
		"componentType":5126,
		"count":5946,
		"byteOffset":0,
		"min":[0.06610505282878876,
		-0.557123601436615,
		0.0],
		"max":[21.303691864013673,
		1.3542602062225342,
		0.34576159715652468]
	},
	{
		"bufferView":19,
		"type":"VEC3",
		"componentType":5126,
		"count":5946,
		"byteOffset":12,
		"min":[-1.0,
		-1.0,
		-1.0],
		"max":[1.0,
		1.0,
		1.0]
	},
	{
		"bufferView":19,
		"type":"VEC2",
		"componentType":5126,
		"count":5946,
		"byteOffset":24,
		"min":[0.0,
		0.0],
		"max":[1.0,
		1.0]
	}],
	"asset":{
		"version":"2.0",
		"generator":"Created using the official Cinema 4D glTF Exporter 1.000x284978"
	},
	"scenes":[{
		"nodes":[0,
		13]
	}],
	"images":[{
		"uri":"data:image/jpeg;base64,"
	},
	{
		"uri":"data:image/jpeg;base64,"
	},
	{
		"uri":"data:image/jpeg;base64,"
	}],
	"nodes":[{
		"name":"acetic_acid",
		"rotation":[0.0,
		-1.0,
		0.0,
		-6.123234262925839e-17],
		"translation":[0.7301016449928284,
		4.243860721588135,
		0.0],
		"scale":[1.0,
		1.0,
		1.0],
		"children":[1,
		2,
		7,
		10]
	},
	{
		"name":"polySurface76",
		"rotation":[0.0,
		0.0,
		0.0,
		-1.0],
		"translation":[0.0,
		0.0,
		0.0],
		"scale":[1.0,
		1.0,
		1.0],
		"mesh":0
	},
	{
		"name":"Voronoi_Fracture_2",
		"rotation":[0.0,
		0.0,
		0.0,
		-1.0],
		"translation":[0.0,
		0.0,
		0.0],
		"scale":[1.0,
		1.0,
		1.0],
		"children":[3,
		4,
		5,
		6]
	},
	{
		"name":"polySurface86_fracturepart",
		"rotation":[0.0,
		0.0,
		0.0,
		-1.0],
		"translation":[2.6415181159973146,
		-2.138792037963867,
		1.3242855072021485],
		"scale":[1.0,
		1.0,
		1.0],
		"mesh":1
	},
	{
		"name":"polySurface86_fracturepart_2",
		"rotation":[0.0,
		0.0,
		0.0,
		-1.0],
		"translation":[2.6418404579162599,
		-2.138792037963867,
		-1.3242855072021485],
		"scale":[1.0,
		1.0,
		1.0],
		"mesh":2
	},
	{
		"name":"polySurface86_fracturepart_3",
		"rotation":[0.0443788543343544,
		0.18401163816452027,
		-0.1323453187942505,
		-0.972961962223053],
		"translation":[2.6768529415130617,
		2.2562665939331056,
		0.0],
		"scale":[1.0,
		1.0,
		1.0],
		"mesh":3
	},
	{
		"name":"polySurface86_fracturepart_4",
		"rotation":[0.0,
		-0.252069354057312,
		0.0,
		0.9677091836929321],
		"translation":[-6.219143390655518,
		-1.7953234910964966,
		0.0],
		"scale":[1.0,
		1.0,
		1.0],
		"mesh":4
	},
	{
		"name":"Voronoi_Fracture_1",
		"rotation":[0.0,
		0.0,
		0.0,
		-1.0],
		"translation":[0.0,
		0.0,
		0.0],
		"scale":[1.0,
		1.0,
		1.0],
		"children":[8,
		9]
	},
	{
		"name":"polySurface88_fracturepart",
		"rotation":[0.0,
		-0.11493714898824692,
		0.0,
		0.9933727383613586],
		"translation":[2.0,
		0.0,
		-5.066394805908203e-7],
		"scale":[1.0,
		1.0,
		1.0],
		"mesh":5
	},
	{
		"name":"polySurface88_fracturepart_2",
		"rotation":[0.02420612797141075,
		0.13567505776882173,
		-0.0033158271107822658,
		-0.9904521107673645],
		"translation":[-2.0,
		0.0,
		-5.066394805908203e-7],
		"scale":[1.0,
		1.0,
		1.0],
		"mesh":6
	},
	{
		"name":"Voronoi_Fracture",
		"rotation":[0.0,
		0.0,
		0.0,
		-1.0],
		"translation":[0.0,
		0.0,
		0.0],
		"scale":[1.0,
		1.0,
		1.0],
		"children":[11,
		12]
	},
	{
		"name":"polySurface74_fracturepart",
		"rotation":[0.0,
		-0.13917310535907746,
		0.0,
		0.9902680516242981],
		"translation":[-3.9011096954345705,
		2.4496936798095705,
		-4.76837158203125e-7],
		"scale":[1.0,
		1.0,
		1.0],
		"mesh":7
	},
	{
		"name":"polySurface74_fracturepart_2",
		"rotation":[0.0,
		-0.09063258022069931,
		0.0,
		-0.9958844184875488],
		"translation":[-3.6443419456481935,
		-2.241201877593994,
		-4.76837158203125e-7],
		"scale":[1.0,
		1.0,
		1.0],
		"mesh":8
	},
	{
		"name":"Extrude",
		"rotation":[0.0,
		0.0,
		0.0,
		-1.0],
		"translation":[-9.54914665222168,
		-2.517698287963867,
		0.0],
		"scale":[1.0,
		1.0,
		1.0],
		"children":[14]
	},
	{
		"name":"Extrude",
		"rotation":[0.0,
		0.0,
		0.0,
		-1.0],
		"translation":[0.0,
		0.0,
		0.0],
		"scale":[1.0,
		1.0,
		1.0],
		"mesh":9
	}],
	"meshes":[{
		"name":"polySurface76",
		"primitives":[{
			"attributes":{
				"POSITION":1,
				"NORMAL":2,
				"TEXCOORD_0":3
			},
			"indices":0,
			"material":0
		}]
	},
	{
		"name":"polySurface86_fracturepart",
		"primitives":[{
			"attributes":{
				"POSITION":5,
				"NORMAL":6,
				"TEXCOORD_0":7
			},
			"indices":4,
			"material":1
		}]
	},
	{
		"name":"polySurface86_fracturepart_2",
		"primitives":[{
			"attributes":{
				"POSITION":9,
				"NORMAL":10,
				"TEXCOORD_0":11
			},
			"indices":8,
			"material":1
		}]
	},
	{
		"name":"polySurface86_fracturepart_3",
		"primitives":[{
			"attributes":{
				"POSITION":13,
				"NORMAL":14,
				"TEXCOORD_0":15
			},
			"indices":12,
			"material":1
		}]
	},
	{
		"name":"polySurface86_fracturepart_4",
		"primitives":[{
			"attributes":{
				"POSITION":17,
				"NORMAL":18,
				"TEXCOORD_0":19
			},
			"indices":16,
			"material":1
		}]
	},
	{
		"name":"polySurface88_fracturepart",
		"primitives":[{
			"attributes":{
				"POSITION":21,
				"NORMAL":22,
				"TEXCOORD_0":23
			},
			"indices":20,
			"material":2
		}]
	},
	{
		"name":"polySurface88_fracturepart_2",
		"primitives":[{
			"attributes":{
				"POSITION":25,
				"NORMAL":26,
				"TEXCOORD_0":27
			},
			"indices":24,
			"material":2
		}]
	},
	{
		"name":"polySurface74_fracturepart",
		"primitives":[{
			"attributes":{
				"POSITION":29,
				"NORMAL":30,
				"TEXCOORD_0":31
			},
			"indices":28,
			"material":3
		}]
	},
	{
		"name":"polySurface74_fracturepart_2",
		"primitives":[{
			"attributes":{
				"POSITION":33,
				"NORMAL":34,
				"TEXCOORD_0":35
			},
			"indices":32,
			"material":3
		}]
	},
	{
		"name":"Extrude",
		"primitives":[{
			"attributes":{
				"POSITION":37,
				"NORMAL":38,
				"TEXCOORD_0":39
			},
			"indices":36,
			"material":4
		}]
	}],
	"bufferViews":[{
		"buffer":0,
		"byteOffset":0,
		"byteLength":5760,
		"target":34963
	},
	{
		"buffer":0,
		"byteOffset":5760,
		"byteLength":31744,
		"target":34962,
		"byteStride":32
	},
	{
		"buffer":1,
		"byteOffset":0,
		"byteLength":6840,
		"target":34963
	},
	{
		"buffer":1,
		"byteOffset":6840,
		"byteLength":21440,
		"target":34962,
		"byteStride":32
	},
	{
		"buffer":2,
		"byteOffset":0,
		"byteLength":6840,
		"target":34963
	},
	{
		"buffer":2,
		"byteOffset":6840,
		"byteLength":21440,
		"target":34962,
		"byteStride":32
	},
	{
		"buffer":3,
		"byteOffset":0,
		"byteLength":6840,
		"target":34963
	},
	{
		"buffer":3,
		"byteOffset":6840,
		"byteLength":21440,
		"target":34962,
		"byteStride":32
	},
	{
		"buffer":4,
		"byteOffset":0,
		"byteLength":6840,
		"target":34963
	},
	{
		"buffer":4,
		"byteOffset":6840,
		"byteLength":21440,
		"target":34962,
		"byteStride":32
	},
	{
		"buffer":5,
		"byteOffset":0,
		"byteLength":6840,
		"target":34963
	},
	{
		"buffer":5,
		"byteOffset":6840,
		"byteLength":21440,
		"target":34962,
		"byteStride":32
	},
	{
		"buffer":6,
		"byteOffset":0,
		"byteLength":6840,
		"target":34963
	},
	{
		"buffer":6,
		"byteOffset":6840,
		"byteLength":21440,
		"target":34962,
		"byteStride":32
	},
	{
		"buffer":7,
		"byteOffset":0,
		"byteLength":6840,
		"target":34963
	},
	{
		"buffer":7,
		"byteOffset":6840,
		"byteLength":21440,
		"target":34962,
		"byteStride":32
	},
	{
		"buffer":8,
		"byteOffset":0,
		"byteLength":6840,
		"target":34963
	},
	{
		"buffer":8,
		"byteOffset":6840,
		"byteLength":21440,
		"target":34962,
		"byteStride":32
	},
	{
		"buffer":9,
		"byteOffset":0,
		"byteLength":33528,
		"target":34963
	},
	{
		"buffer":9,
		"byteOffset":33528,
		"byteLength":190272,
		"target":34962,
		"byteStride":32
	}],
	"buffers":[{
		"uri":"data:application/octet-stream;base64,",
		"byteLength":37504
	},
	{
		"uri":"data:application/octet-stream;base64,",
		"byteLength":28280
	},
	{
		"uri":"data:application/octet-stream;base64,",
		"byteLength":28280
	},
	{
		"uri":"data:application/octet-stream;base64,",
		"byteLength":28280
	},
	{
		"uri":"data:application/octet-stream;base64,",
		"byteLength":28280
	},
	{
		"uri":"data:application/octet-stream;base64,",
		"byteLength":28280
	},
	{
		"uri":"data:application/octet-stream;base64,",
		"byteLength":28280
	},
	{
		"uri":"data:application/octet-stream;base64,",
		"byteLength":28280
	},
	{
		"uri":"data:application/octet-stream;base64,",
		"byteLength":28280
	},
	{
		"uri":"data:application/octet-stream;base64,",
		"byteLength":223800
	}],
	"samplers":[{
		"magFilter":9729,
		"minFilter":9729,
		"wrapT":10497,
		"wrapS":10497
	},
	{
		"magFilter":9729,
		"minFilter":9729,
		"wrapT":10497,
		"wrapS":10497
	},
	{
		"magFilter":9729,
		"minFilter":9729,
		"wrapT":10497,
		"wrapS":10497
	}],
	"textures":[{
		"sampler":0,
		"source":0
	},
	{
		"sampler":1,
		"source":1
	},
	{
		"sampler":2,
		"source":2
	}],
	"materials":[{
		"pbrMetallicRoughness":{
			"baseColorFactor":[0.46,
			0.46,
			0.46,
			1.0],
			"metallicFactor":0.0,
			"roughnessFactor":0.5
		},
		"emissiveFactor":[0.0,
		0.0,
		0.0],
		"alphaMode":"OPAQUE",
		"doubleSided":true,
		"name":"Mat"
	},
	{
		"pbrMetallicRoughness":{
			"baseColorTexture":{
				"index":0
			},
			"baseColorFactor":[0.8,
			0.8,
			0.8,
			1.0],
			"metallicFactor":0.0,
			"roughnessFactor":0.5
		},
		"emissiveFactor":[0.0,
		0.0,
		0.0],
		"alphaMode":"OPAQUE",
		"doubleSided":true,
		"name":"Mat.2"
	},
	{
		"pbrMetallicRoughness":{
			"baseColorTexture":{
				"index":1
			},
			"baseColorFactor":[0.8,
			0.8,
			0.8,
			1.0],
			"metallicFactor":0.0,
			"roughnessFactor":0.5
		},
		"emissiveFactor":[0.0,
		0.0,
		0.0],
		"alphaMode":"OPAQUE",
		"doubleSided":true,
		"name":"Mat.2"
	},
	{
		"pbrMetallicRoughness":{
			"baseColorTexture":{
				"index":2
			},
			"baseColorFactor":[0.8,
			0.8,
			0.8,
			1.0],
			"metallicFactor":0.0,
			"roughnessFactor":0.5
		},
		"emissiveFactor":[0.0,
		0.0,
		0.0],
		"alphaMode":"OPAQUE",
		"doubleSided":true,
		"name":"Mat.2"
	},
	{
		"pbrMetallicRoughness":{
			"baseColorFactor":[1.0,
			0.0,
			0.0,
			1.0],
			"metallicFactor":0.0,
			"roughnessFactor":0.5
		},
		"emissiveFactor":[0.0,
		0.0,
		0.0],
		"alphaMode":"OPAQUE",
		"doubleSided":true,
		"name":"Mat"
	}]
}