{
	"accessors":[{
		"bufferView":0,
		"type":"SCALAR",
		"componentType":5123,
		"count":5220,
		"byteOffset":0,
		"min":[0],
		"max":[958]
	},
	{
		"bufferView":1,
		"type":"VEC3",
		"componentType":5126,
		"count":959,
		"byteOffset":0,
		"min":[-0.6224046349525452,
		-0.534325122833252,
		-0.5655004382133484],
		"max":[0.50859534740448,
		0.5966748595237732,
		0.5654995441436768]
	},
	{
		"bufferView":1,
		"type":"VEC3",
		"componentType":5126,
		"count":959,
		"byteOffset":12,
		"min":[-0.9981250762939453,
		-0.9993438124656677,
		-0.9986875653266907],
		"max":[0.9981250762939453,
		0.9993438124656677,
		0.9986875653266907]
	},
	{
		"bufferView":1,
		"type":"VEC2",
		"componentType":5126,
		"count":959,
		"byteOffset":24,
		"min":[0.0,
		0.0],
		"max":[1.0000003576278687,
		1.0]
	},
	{
		"bufferView":2,
		"type":"SCALAR",
		"componentType":5123,
		"count":240,
		"byteOffset":0,
		"min":[0],
		"max":[83]
	},
	{
		"bufferView":3,
		"type":"VEC3",
		"componentType":5126,
		"count":84,
		"byteOffset":0,
		"min":[-1.8416187763214112,
		-1.4716033935546876,
		-5.389488697052002],
		"max":[-0.3481147587299347,
		-0.35482048988342287,
		-5.124107837677002]
	},
	{
		"bufferView":3,
		"type":"VEC3",
		"componentType":5126,
		"count":84,
		"byteOffset":12,
		"min":[-0.8325625658035278,
		-0.8325625658035278,
		-1.0],
		"max":[0.8325625658035278,
		0.8325625658035278,
		0.9999688267707825]
	},
	{
		"bufferView":3,
		"type":"VEC2",
		"componentType":5126,
		"count":84,
		"byteOffset":24,
		"min":[0.3437499701976776,
		0.0],
		"max":[0.65625,
		1.0]
	},
	{
		"bufferView":4,
		"type":"SCALAR",
		"componentType":5123,
		"count":20880,
		"byteOffset":0,
		"min":[0],
		"max":[3835]
	},
	{
		"bufferView":5,
		"type":"VEC3",
		"componentType":5126,
		"count":3836,
		"byteOffset":0,
		"min":[-2.637373924255371,
		-2.1286637783050539,
		-13.049569129943848],
		"max":[2.6131186485290529,
		2.006112575531006,
		-2.1185853481292726]
	},
	{
		"bufferView":5,
		"type":"VEC3",
		"componentType":5126,
		"count":3836,
		"byteOffset":12,
		"min":[-0.9993438124656677,
		-0.9998750686645508,
		-1.0],
		"max":[0.9993438124656677,
		0.9998750686645508,
		1.0]
	},
	{
		"bufferView":5,
		"type":"VEC2",
		"componentType":5126,
		"count":3836,
		"byteOffset":24,
		"min":[0.0,
		0.0],
		"max":[1.0000003576278687,
		1.0]
	},
	{
		"bufferView":6,
		"type":"SCALAR",
		"componentType":5123,
		"count":10440,
		"byteOffset":0,
		"min":[0],
		"max":[1917]
	},
	{
		"bufferView":7,
		"type":"VEC3",
		"componentType":5126,
		"count":1918,
		"byteOffset":0,
		"min":[-0.801253616809845,
		-1.2754623889923096,
		-11.07131576538086],
		"max":[0.8012523055076599,
		4.002115726470947,
		-7.124538421630859]
	},
	{
		"bufferView":7,
		"type":"VEC3",
		"componentType":5126,
		"count":1918,
		"byteOffset":12,
		"min":[-0.9999707937240601,
		-0.9999523162841797,
		-0.9983460903167725],
		"max":[0.9999707937240601,
		0.9999523162841797,
		0.9983460903167725]
	},
	{
		"bufferView":7,
		"type":"VEC2",
		"componentType":5126,
		"count":1918,
		"byteOffset":24,
		"min":[0.0,
		0.0],
		"max":[1.0000003576278687,
		1.0]
	},
	{
		"bufferView":8,
		"type":"SCALAR",
		"componentType":5123,
		"count":10440,
		"byteOffset":0,
		"min":[0],
		"max":[1917]
	},
	{
		"bufferView":9,
		"type":"VEC3",
		"componentType":5126,
		"count":1918,
		"byteOffset":0,
		"min":[-0.8907546401023865,
		-1.263464331626892,
		-8.81310749053955],
		"max":[0.8907544016838074,
		1.558956503868103,
		-4.38969612121582]
	},
	{
		"bufferView":9,
		"type":"VEC3",
		"componentType":5126,
		"count":1918,
		"byteOffset":12,
		"min":[-0.999750018119812,
		-1.0,
		-0.9971563220024109],
		"max":[0.999750018119812,
		1.0,
		0.9971563220024109]
	},
	{
		"bufferView":9,
		"type":"VEC2",
		"componentType":5126,
		"count":1918,
		"byteOffset":24,
		"min":[0.0,
		0.0],
		"max":[1.0000003576278687,
		1.0]
	},
	{
		"bufferView":10,
		"type":"SCALAR",
		"componentType":5123,
		"count":5220,
		"byteOffset":0,
		"min":[0],
		"max":[958]
	},
	{
		"bufferView":11,
		"type":"VEC3",
		"componentType":5126,
		"count":959,
		"byteOffset":0,
		"min":[-0.7567986249923706,
		-0.2507973909378052,
		-3.365739583969116],
		"max":[0.756798505783081,
		1.2566338777542115,
		-1.8630329370498658]
	},
	{
		"bufferView":11,
		"type":"VEC3",
		"componentType":5126,
		"count":959,
		"byteOffset":12,
		"min":[-0.9999688267707825,
		-1.0,
		-0.9954375624656677],
		"max":[0.9999688267707825,
		1.0,
		0.9954375624656677]
	},
	{
		"bufferView":11,
		"type":"VEC2",
		"componentType":5126,
		"count":959,
		"byteOffset":24,
		"min":[0.0,
		0.0],
		"max":[1.0000003576278687,
		1.0]
	},
	{
		"bufferView":12,
		"type":"SCALAR",
		"componentType":5123,
		"count":2160,
		"byteOffset":0,
		"min":[0],
		"max":[755]
	},
	{
		"bufferView":13,
		"type":"VEC3",
		"componentType":5126,
		"count":756,
		"byteOffset":0,
		"min":[-1.8823784589767457,
		-1.5032262802124024,
		-12.37740421295166],
		"max":[2.1495907306671144,
		2.704233407974243,
		-2.548950433731079]
	},
	{
		"bufferView":13,
		"type":"VEC3",
		"componentType":5126,
		"count":756,
		"byteOffset":12,
		"min":[-0.9986093044281006,
		-0.9999215602874756,
		-0.9986093044281006],
		"max":[0.9986094832420349,
		0.9999216794967651,
		0.9986096024513245]
	},
	{
		"bufferView":13,
		"type":"VEC2",
		"componentType":5126,
		"count":756,
		"byteOffset":24,
		"min":[0.3437499701976776,
		0.0],
		"max":[0.65625,
		1.0]
	},
	{
		"bufferView":14,
		"type":"SCALAR",
		"componentType":5123,
		"count":15468,
		"byteOffset":0,
		"min":[0],
		"max":[5501]
	},
	{
		"bufferView":15,
		"type":"VEC3",
		"componentType":5126,
		"count":5502,
		"byteOffset":0,
		"min":[0.005895855836570263,
		-0.2835906744003296,
		0.0],
		"max":[12.564068794250489,
		0.8938117623329163,
		0.22820265591144563]
	},
	{
		"bufferView":15,
		"type":"VEC3",
		"componentType":5126,
		"count":5502,
		"byteOffset":12,
		"min":[-1.0,
		-1.0,
		-1.0],
		"max":[1.0,
		1.0,
		1.0]
	},
	{
		"bufferView":15,
		"type":"VEC2",
		"componentType":5126,
		"count":5502,
		"byteOffset":24,
		"min":[0.0,
		0.0],
		"max":[1.0,
		1.0]
	}],
	"asset":{
		"version":"2.0",
		"generator":"Created using the official Cinema 4D glTF Exporter 1.000x284978"
	},
	"scenes":[{
		"nodes":[0,
		11]
	}],
	"images":[{
		"uri":"data:image/jpeg;base64,"
	},
	{
		"uri":"data:image/jpeg;base64,"
	},
	{
		"uri":"data:image/jpeg;base64,"
	},
	{
		"uri":"data:image/jpeg;base64,"
	},
	{
		"uri":"data:image/jpeg;base64,"
	}],
	"nodes":[{
		"name":"Null_2",
		"rotation":[0.0,
		0.0,
		0.0,
		-1.0],
		"translation":[6.462948322296143,
		3.807044267654419,
		-8.637053489685059],
		"scale":[1.0,
		1.0,
		1.0],
		"children":[1,
		3,
		6,
		7,
		10]
	},
	{
		"name":"polySurface215",
		"rotation":[0.07957862317562103,
		0.0374273918569088,
		-0.9540123343467712,
		-0.28657788038253786],
		"translation":[-2.375973701477051,
		0.7472346425056458,
		6.603738307952881],
		"scale":[1.0,
		1.0,
		1.0],
		"children":[2]
	},
	{
		"name":"polySurface215-Mat.2",
		"rotation":[0.0,
		0.0,
		0.0,
		-1.0],
		"translation":[0.0,
		0.0,
		0.0],
		"scale":[1.0,
		1.0,
		1.0],
		"mesh":0
	},
	{
		"name":"polySurface211",
		"rotation":[0.0,
		-0.7071067690849304,
		0.0,
		-0.7071067690849304],
		"translation":[0.3175443410873413,
		-0.7354331016540527,
		8.656065940856934],
		"scale":[1.0,
		1.0,
		1.0],
		"children":[4,
		5]
	},
	{
		"name":"polySurface211-Mat",
		"rotation":[0.0,
		0.0,
		0.0,
		-1.0],
		"translation":[0.0,
		0.0,
		0.0],
		"scale":[1.0,
		1.0,
		1.0],
		"mesh":1
	},
	{
		"name":"polySurface211-Mat.2",
		"rotation":[0.0,
		0.0,
		0.0,
		-1.0],
		"translation":[0.0,
		0.0,
		0.0],
		"scale":[1.0,
		1.0,
		1.0],
		"mesh":2
	},
	{
		"name":"polySurface222",
		"rotation":[0.0,
		-0.7071067690849304,
		0.0,
		-0.7071067690849304],
		"translation":[0.3175443410873413,
		-0.7354331016540527,
		8.656065940856934],
		"scale":[1.0,
		1.0,
		1.0],
		"mesh":3
	},
	{
		"name":"pSphere25",
		"rotation":[0.0,
		-0.7071067690849304,
		0.0,
		-0.7071067690849304],
		"translation":[0.3175443410873413,
		-0.7354331016540527,
		8.656065940856934],
		"scale":[1.0,
		1.0,
		1.0],
		"children":[8,
		9]
	},
	{
		"name":"pSphere25-Mat.2",
		"rotation":[0.0,
		0.0,
		0.0,
		-1.0],
		"translation":[0.0,
		0.0,
		0.0],
		"scale":[1.0,
		1.0,
		1.0],
		"mesh":4
	},
	{
		"name":"pSphere25-Mat.2",
		"rotation":[0.0,
		0.0,
		0.0,
		-1.0],
		"translation":[0.0,
		0.0,
		0.0],
		"scale":[1.0,
		1.0,
		1.0],
		"mesh":5
	},
	{
		"name":"polySurface214",
		"rotation":[0.0,
		-0.7071067690849304,
		0.0,
		-0.7071067690849304],
		"translation":[0.3175443410873413,
		-0.7354331016540527,
		8.656065940856934],
		"scale":[1.0,
		1.0,
		1.0],
		"mesh":6
	},
	{
		"name":"Extrude",
		"rotation":[0.0,
		0.0,
		0.0,
		-1.0],
		"translation":[-6.632109642028809,
		-1.605049967765808,
		-0.16421744227409364],
		"scale":[1.0,
		1.0,
		1.0],
		"children":[12]
	},
	{
		"name":"Extrude",
		"mesh":7
	}],
	"meshes":[{
		"name":"polySurface215-Mat.2",
		"primitives":[{
			"attributes":{
				"POSITION":1,
				"NORMAL":2,
				"TEXCOORD_0":3
			},
			"indices":0,
			"material":0
		}]
	},
	{
		"name":"polySurface211-Mat",
		"primitives":[{
			"attributes":{
				"POSITION":5,
				"NORMAL":6,
				"TEXCOORD_0":7
			},
			"indices":4,
			"material":1
		}]
	},
	{
		"name":"polySurface211-Mat.2",
		"primitives":[{
			"attributes":{
				"POSITION":9,
				"NORMAL":10,
				"TEXCOORD_0":11
			},
			"indices":8,
			"material":2
		}]
	},
	{
		"name":"polySurface222",
		"primitives":[{
			"attributes":{
				"POSITION":13,
				"NORMAL":14,
				"TEXCOORD_0":15
			},
			"indices":12,
			"material":3
		}]
	},
	{
		"name":"pSphere25-Mat.2",
		"primitives":[{
			"attributes":{
				"POSITION":17,
				"NORMAL":18,
				"TEXCOORD_0":19
			},
			"indices":16,
			"material":4
		}]
	},
	{
		"name":"pSphere25-Mat.2",
		"primitives":[{
			"attributes":{
				"POSITION":21,
				"NORMAL":22,
				"TEXCOORD_0":23
			},
			"indices":20,
			"material":5
		}]
	},
	{
		"name":"polySurface214",
		"primitives":[{
			"attributes":{
				"POSITION":25,
				"NORMAL":26,
				"TEXCOORD_0":27
			},
			"indices":24,
			"material":1
		}]
	},
	{
		"name":"Extrude",
		"primitives":[{
			"attributes":{
				"POSITION":29,
				"NORMAL":30,
				"TEXCOORD_0":31
			},
			"indices":28,
			"material":6
		}]
	}],
	"bufferViews":[{
		"buffer":0,
		"byteOffset":0,
		"byteLength":10440,
		"target":34963
	},
	{
		"buffer":0,
		"byteOffset":10440,
		"byteLength":30688,
		"target":34962,
		"byteStride":32
	},
	{
		"buffer":1,
		"byteOffset":0,
		"byteLength":480,
		"target":34963
	},
	{
		"buffer":1,
		"byteOffset":480,
		"byteLength":2688,
		"target":34962,
		"byteStride":32
	},
	{
		"buffer":2,
		"byteOffset":0,
		"byteLength":41760,
		"target":34963
	},
	{
		"buffer":2,
		"byteOffset":41760,
		"byteLength":122752,
		"target":34962,
		"byteStride":32
	},
	{
		"buffer":3,
		"byteOffset":0,
		"byteLength":20880,
		"target":34963
	},
	{
		"buffer":3,
		"byteOffset":20880,
		"byteLength":61376,
		"target":34962,
		"byteStride":32
	},
	{
		"buffer":4,
		"byteOffset":0,
		"byteLength":20880,
		"target":34963
	},
	{
		"buffer":4,
		"byteOffset":20880,
		"byteLength":61376,
		"target":34962,
		"byteStride":32
	},
	{
		"buffer":5,
		"byteOffset":0,
		"byteLength":10440,
		"target":34963
	},
	{
		"buffer":5,
		"byteOffset":10440,
		"byteLength":30688,
		"target":34962,
		"byteStride":32
	},
	{
		"buffer":6,
		"byteOffset":0,
		"byteLength":4320,
		"target":34963
	},
	{
		"buffer":6,
		"byteOffset":4320,
		"byteLength":24192,
		"target":34962,
		"byteStride":32
	},
	{
		"buffer":7,
		"byteOffset":0,
		"byteLength":30936,
		"target":34963
	},
	{
		"buffer":7,
		"byteOffset":30936,
		"byteLength":176064,
		"target":34962,
		"byteStride":32
	}],
	"buffers":[{
		"uri":"data:application/octet-stream;base64,",
		"byteLength":41128
	},
	{
		"uri":"data:application/octet-stream;base64,",
		"byteLength":3168
	},
	{
		"uri":"data:application/octet-stream;base64,",
		"byteLength":164512
	},
	{
		"uri":"data:application/octet-stream;base64,",
		"byteLength":82256
	},
	{
		"uri":"data:application/octet-stream;base64,",
		"byteLength":82256
	},
	{
		"uri":"data:application/octet-stream;base64,",
		"byteLength":41128
	},
	{
		"uri":"data:application/octet-stream;base64,",
		"byteLength":28512
	},
	{
		"uri":"data:application/octet-stream;base64,",
		"byteLength":207000
	}],
	"samplers":[{
		"magFilter":9729,
		"minFilter":9729,
		"wrapT":10497,
		"wrapS":10497
	},
	{
		"magFilter":9729,
		"minFilter":9729,
		"wrapT":10497,
		"wrapS":10497
	},
	{
		"magFilter":9729,
		"minFilter":9729,
		"wrapT":10497,
		"wrapS":10497
	},
	{
		"magFilter":9729,
		"minFilter":9729,
		"wrapT":10497,
		"wrapS":10497
	},
	{
		"magFilter":9729,
		"minFilter":9729,
		"wrapT":10497,
		"wrapS":10497
	}],
	"textures":[{
		"sampler":0,
		"source":0
	},
	{
		"sampler":1,
		"source":1
	},
	{
		"sampler":2,
		"source":2
	},
	{
		"sampler":3,
		"source":3
	},
	{
		"sampler":4,
		"source":4
	}],
	"materials":[{
		"pbrMetallicRoughness":{
			"baseColorTexture":{
				"index":0
			},
			"baseColorFactor":[0.8,
			0.8,
			0.8,
			1.0],
			"metallicFactor":0.0,
			"roughnessFactor":0.5
		},
		"emissiveFactor":[0.0,
		0.0,
		0.0],
		"alphaMode":"OPAQUE",
		"doubleSided":true,
		"name":"Mat.2"
	},
	{
		"pbrMetallicRoughness":{
			"baseColorFactor":[0.46,
			0.46,
			0.46,
			1.0],
			"metallicFactor":0.0,
			"roughnessFactor":0.5
		},
		"emissiveFactor":[0.0,
		0.0,
		0.0],
		"alphaMode":"OPAQUE",
		"doubleSided":true,
		"name":"Mat"
	},
	{
		"pbrMetallicRoughness":{
			"baseColorTexture":{
				"index":1
			},
			"baseColorFactor":[0.8,
			0.8,
			0.8,
			1.0],
			"metallicFactor":0.0,
			"roughnessFactor":0.5
		},
		"emissiveFactor":[0.0,
		0.0,
		0.0],
		"alphaMode":"OPAQUE",
		"doubleSided":true,
		"name":"Mat.2"
	},
	{
		"pbrMetallicRoughness":{
			"baseColorTexture":{
				"index":2
			},
			"baseColorFactor":[0.8,
			0.8,
			0.8,
			1.0],
			"metallicFactor":0.0,
			"roughnessFactor":0.5
		},
		"emissiveFactor":[0.0,
		0.0,
		0.0],
		"alphaMode":"OPAQUE",
		"doubleSided":true,
		"name":"Mat.2"
	},
	{
		"pbrMetallicRoughness":{
			"baseColorTexture":{
				"index":3
			},
			"baseColorFactor":[0.8,
			0.8,
			0.8,
			1.0],
			"metallicFactor":0.0,
			"roughnessFactor":0.5
		},
		"emissiveFactor":[0.0,
		0.0,
		0.0],
		"alphaMode":"OPAQUE",
		"doubleSided":true,
		"name":"Mat.2"
	},
	{
		"pbrMetallicRoughness":{
			"baseColorTexture":{
				"index":4
			},
			"baseColorFactor":[0.8,
			0.8,
			0.8,
			1.0],
			"metallicFactor":0.0,
			"roughnessFactor":0.5
		},
		"emissiveFactor":[0.0,
		0.0,
		0.0],
		"alphaMode":"OPAQUE",
		"doubleSided":true,
		"name":"Mat.2"
	},
	{
		"pbrMetallicRoughness":{
			"baseColorFactor":[1.0,
			0.0,
			0.0,
			1.0],
			"metallicFactor":0.0,
			"roughnessFactor":0.5
		},
		"emissiveFactor":[0.0,
		0.0,
		0.0],
		"alphaMode":"OPAQUE",
		"doubleSided":true,
		"name":"Mat"
	}]
}