{
	"asset":{
		"version":"2.0",
		"generator":"Created using the official Cinema 4D glTF Exporter 1.000x284978"
	},
	"scenes":[{
		"nodes":[0,
		1,
		4,
		10]
	}],
	"nodes":[{
		"name":"Extrude.1",
		"translation":[-3.390925168991089,
		-3.043097734451294,
		0.0],
		"rotation":[0.0,
		0.0,
		0.0,
		-1.0],
		"scale":[1.0,
		1.0,
		1.0],
		"mesh":0
	},
	{
		"name":"Voronoi Fracture",
		"translation":[0.05985058471560478,
		0.0,
		-0.05985058471560478],
		"rotation":[0.0,
		-0.7071067690849304,
		0.0,
		-0.7071067690849304],
		"scale":[1.0,
		1.0,
		1.0],
		"children":[2,
		3]
	},
	{
		"name":"C3_fracturepart",
		"translation":[-2.384185791015625e-7,
		0.0,
		1.302469253540039],
		"rotation":[0.01887333206832409,
		-0.6347560882568359,
		-0.015511528588831425,
		-0.7723262906074524],
		"scale":[1.0,
		1.0,
		1.0],
		"mesh":1
	},
	{
		"name":"C3_fracturepart",
		"translation":[-2.384185791015625e-7,
		0.0,
		-1.3823093175888062],
		"rotation":[0.03178152069449425,
		-0.5901358127593994,
		-0.023259853944182397,
		-0.8063427209854126],
		"scale":[1.0,
		1.0,
		1.0],
		"mesh":2
	},
	{
		"name":"Voronoi Fracture.2",
		"translation":[0.05985058471560478,
		0.0,
		-0.05985058471560478],
		"rotation":[0.0,
		-0.7071067690849304,
		0.0,
		-0.7071067690849304],
		"scale":[1.0,
		1.0,
		1.0],
		"children":[5,
		6,
		7,
		8,
		9]
	},
	{
		"name":"polySurface11_fracturepart",
		"translation":[-1.862645149230957e-8,
		-1.1175870895385742e-7,
		-0.0560222864151001],
		"rotation":[0.0,
		0.0,
		0.0,
		-1.0],
		"scale":[1.0,
		1.0,
		1.0],
		"mesh":3
	},
	{
		"name":"polySurface11_fracturepart",
		"translation":[-1.862645149230957e-8,
		-0.28794434666633608,
		-0.05602234601974487],
		"rotation":[0.0,
		0.0,
		0.0,
		-1.0],
		"scale":[1.0,
		1.0,
		1.0],
		"mesh":4
	},
	{
		"name":"polySurface11_fracturepart",
		"translation":[-1.862645149230957e-8,
		0.30263832211494448,
		-0.05602234601974487],
		"rotation":[0.0,
		0.0,
		0.0,
		-1.0],
		"scale":[1.0,
		1.0,
		1.0],
		"mesh":5
	},
	{
		"name":"polySurface11_fracturepart",
		"translation":[-1.4901161193847657e-8,
		-1.1175870895385742e-7,
		2.450601816177368],
		"rotation":[0.0,
		0.0,
		0.0,
		-1.0],
		"scale":[1.0,
		1.0,
		1.0],
		"mesh":6
	},
	{
		"name":"polySurface11_fracturepart",
		"translation":[-1.4901161193847657e-8,
		-1.1175870895385742e-7,
		-2.4479451179504396],
		"rotation":[0.0,
		0.0,
		0.0,
		-1.0],
		"scale":[1.0,
		1.0,
		1.0],
		"mesh":7
	},
	{
		"name":"Voronoi Fracture.1",
		"translation":[0.05985058471560478,
		0.0,
		-0.05985058471560478],
		"rotation":[0.0,
		-0.7071067690849304,
		0.0,
		-0.7071067690849304],
		"scale":[1.0,
		1.0,
		1.0],
		"children":[11,
		12]
	},
	{
		"name":"polySurface9_fracturepart",
		"translation":[-1.043081283569336e-7,
		-2.887586933260133e-17,
		3.3071110248565676],
		"rotation":[0.5229923725128174,
		-0.4774669408798218,
		0.35238659381866457,
		0.6118234992027283],
		"scale":[1.0,
		1.0,
		1.0],
		"mesh":8
	},
	{
		"name":"polySurface9_fracturepart",
		"translation":[-1.043081283569336e-7,
		1.3038338452416043e-17,
		-3.308962106704712],
		"rotation":[0.5279809236526489,
		-0.4927547872066498,
		0.39459338784217837,
		0.5680888295173645],
		"scale":[1.0,
		1.0,
		1.0],
		"mesh":9
	}],
	"meshes":[{
		"name":"Extrude.1",
		"primitives":[{
			"attributes":{
				"POSITION":1,
				"NORMAL":2,
				"TEXCOORD_0":3
			},
			"indices":0,
			"material":0
		}]
	},
	{
		"name":"C3_fracturepart",
		"primitives":[{
			"attributes":{
				"POSITION":5,
				"NORMAL":6,
				"TEXCOORD_0":7
			},
			"indices":4,
			"material":1
		}]
	},
	{
		"name":"C3_fracturepart",
		"primitives":[{
			"attributes":{
				"POSITION":9,
				"NORMAL":10,
				"TEXCOORD_0":11
			},
			"indices":8,
			"material":1
		}]
	},
	{
		"name":"polySurface11_fracturepart",
		"primitives":[{
			"attributes":{
				"POSITION":13,
				"NORMAL":14,
				"TEXCOORD_0":15
			},
			"indices":12,
			"material":2
		}]
	},
	{
		"name":"polySurface11_fracturepart",
		"primitives":[{
			"attributes":{
				"POSITION":17,
				"NORMAL":18,
				"TEXCOORD_0":19
			},
			"indices":16,
			"material":2
		}]
	},
	{
		"name":"polySurface11_fracturepart",
		"primitives":[{
			"attributes":{
				"POSITION":21,
				"NORMAL":22,
				"TEXCOORD_0":23
			},
			"indices":20,
			"material":2
		}]
	},
	{
		"name":"polySurface11_fracturepart",
		"primitives":[{
			"attributes":{
				"POSITION":25,
				"NORMAL":26,
				"TEXCOORD_0":27
			},
			"indices":24,
			"material":2
		}]
	},
	{
		"name":"polySurface11_fracturepart",
		"primitives":[{
			"attributes":{
				"POSITION":29,
				"NORMAL":30,
				"TEXCOORD_0":31
			},
			"indices":28,
			"material":2
		}]
	},
	{
		"name":"polySurface9_fracturepart",
		"primitives":[{
			"attributes":{
				"POSITION":33,
				"NORMAL":34,
				"TEXCOORD_0":35
			},
			"indices":32,
			"material":3
		}]
	},
	{
		"name":"polySurface9_fracturepart",
		"primitives":[{
			"attributes":{
				"POSITION":37,
				"NORMAL":38,
				"TEXCOORD_0":39
			},
			"indices":36,
			"material":3
		}]
	}],
	"accessors":[{
		"bufferView":0,
		"type":"SCALAR",
		"componentType":5123,
		"max":[2277],
		"count":6336,
		"byteOffset":0,
		"min":[0]
	},
	{
		"bufferView":1,
		"type":"VEC3",
		"componentType":5126,
		"max":[6.745635032653809,
		1.1758517026901246,
		0.30000001192092898],
		"count":2278,
		"byteOffset":0,
		"min":[0.010858789086341858,
		-0.37307697534561159,
		0.0]
	},
	{
		"bufferView":1,
		"type":"VEC3",
		"componentType":5126,
		"max":[1.0,
		1.0,
		1.0],
		"count":2278,
		"byteOffset":12,
		"min":[-1.0,
		-1.0,
		-1.0]
	},
	{
		"bufferView":1,
		"type":"VEC2",
		"componentType":5126,
		"max":[1.0,
		1.0],
		"count":2278,
		"byteOffset":24,
		"min":[0.0,
		0.0]
	},
	{
		"bufferView":2,
		"type":"SCALAR",
		"componentType":5123,
		"max":[958],
		"count":5220,
		"byteOffset":0,
		"min":[0]
	},
	{
		"bufferView":3,
		"type":"VEC3",
		"componentType":5126,
		"max":[0.75,
		0.75,
		0.75],
		"count":959,
		"byteOffset":0,
		"min":[-0.75,
		-0.75,
		-0.75]
	},
	{
		"bufferView":3,
		"type":"VEC3",
		"componentType":5126,
		"max":[1.0,
		1.0,
		0.994437575340271],
		"count":959,
		"byteOffset":12,
		"min":[-1.0,
		-1.0,
		-0.994437575340271]
	},
	{
		"bufferView":3,
		"type":"VEC2",
		"componentType":5126,
		"max":[1.0000003576278687,
		1.0],
		"count":959,
		"byteOffset":24,
		"min":[0.0,
		0.0]
	},
	{
		"bufferView":4,
		"type":"SCALAR",
		"componentType":5123,
		"max":[958],
		"count":5220,
		"byteOffset":0,
		"min":[0]
	},
	{
		"bufferView":5,
		"type":"VEC3",
		"componentType":5126,
		"max":[0.75,
		0.75,
		0.75],
		"count":959,
		"byteOffset":0,
		"min":[-0.75,
		-0.75,
		-0.75]
	},
	{
		"bufferView":5,
		"type":"VEC3",
		"componentType":5126,
		"max":[1.0,
		1.0,
		0.994437575340271],
		"count":959,
		"byteOffset":12,
		"min":[-1.0,
		-1.0,
		-0.994437575340271]
	},
	{
		"bufferView":5,
		"type":"VEC2",
		"componentType":5126,
		"max":[1.0000003576278687,
		1.0],
		"count":959,
		"byteOffset":24,
		"min":[0.0,
		0.0]
	},
	{
		"bufferView":6,
		"type":"SCALAR",
		"componentType":5123,
		"max":[83],
		"count":240,
		"byteOffset":0,
		"min":[0]
	},
	{
		"bufferView":7,
		"type":"VEC3",
		"componentType":5126,
		"max":[0.0839739441871643,
		0.0839739516377449,
		0.7252610921859741],
		"count":84,
		"byteOffset":0,
		"min":[-0.0839739441871643,
		-0.0839739516377449,
		-0.7252610921859741]
	},
	{
		"bufferView":7,
		"type":"VEC3",
		"componentType":5126,
		"max":[0.7026875615119934,
		0.7026875615119934,
		1.0],
		"count":84,
		"byteOffset":12,
		"min":[-0.7026875615119934,
		-0.7026875615119934,
		-1.0]
	},
	{
		"bufferView":7,
		"type":"VEC2",
		"componentType":5126,
		"max":[0.65625,
		1.0],
		"count":84,
		"byteOffset":24,
		"min":[0.3437499701976776,
		0.0]
	},
	{
		"bufferView":8,
		"type":"SCALAR",
		"componentType":5123,
		"max":[83],
		"count":240,
		"byteOffset":0,
		"min":[0]
	},
	{
		"bufferView":9,
		"type":"VEC3",
		"componentType":5126,
		"max":[0.0839739441871643,
		0.08247450739145279,
		0.8244337439537048],
		"count":84,
		"byteOffset":0,
		"min":[-0.0839739441871643,
		-0.08247450739145279,
		-0.8244337439537048]
	},
	{
		"bufferView":9,
		"type":"VEC3",
		"componentType":5126,
		"max":[0.7024688124656677,
		0.7027812600135803,
		1.0],
		"count":84,
		"byteOffset":12,
		"min":[-0.7024688124656677,
		-0.7027812600135803,
		-1.0]
	},
	{
		"bufferView":9,
		"type":"VEC2",
		"componentType":5126,
		"max":[0.65625,
		1.0],
		"count":84,
		"byteOffset":24,
		"min":[0.3437499701976776,
		0.0]
	},
	{
		"bufferView":10,
		"type":"SCALAR",
		"componentType":5123,
		"max":[83],
		"count":240,
		"byteOffset":0,
		"min":[0]
	},
	{
		"bufferView":11,
		"type":"VEC3",
		"componentType":5126,
		"max":[0.0839739441871643,
		0.0824744924902916,
		0.8244337439537048],
		"count":84,
		"byteOffset":0,
		"min":[-0.0839739441871643,
		-0.0824744924902916,
		-0.8244337439537048]
	},
	{
		"bufferView":11,
		"type":"VEC3",
		"componentType":5126,
		"max":[0.7024688124656677,
		0.7027812600135803,
		1.0],
		"count":84,
		"byteOffset":12,
		"min":[-0.7024688124656677,
		-0.7027812600135803,
		-1.0]
	},
	{
		"bufferView":11,
		"type":"VEC2",
		"componentType":5126,
		"max":[0.65625,
		1.0],
		"count":84,
		"byteOffset":24,
		"min":[0.3437499701976776,
		0.0]
	},
	{
		"bufferView":12,
		"type":"SCALAR",
		"componentType":5123,
		"max":[83],
		"count":240,
		"byteOffset":0,
		"min":[0]
	},
	{
		"bufferView":13,
		"type":"VEC3",
		"componentType":5126,
		"max":[0.1213860735297203,
		0.1213860958814621,
		0.5155341625213623],
		"count":84,
		"byteOffset":0,
		"min":[-0.1213860735297203,
		-0.1213860958814621,
		-0.5155341625213623]
	},
	{
		"bufferView":13,
		"type":"VEC3",
		"componentType":5126,
		"max":[0.7026875615119934,
		0.7026875615119934,
		1.0],
		"count":84,
		"byteOffset":12,
		"min":[-0.7026875615119934,
		-0.7026875615119934,
		-1.0]
	},
	{
		"bufferView":13,
		"type":"VEC2",
		"componentType":5126,
		"max":[0.65625,
		1.0],
		"count":84,
		"byteOffset":24,
		"min":[0.3437499701976776,
		0.0]
	},
	{
		"bufferView":14,
		"type":"SCALAR",
		"componentType":5123,
		"max":[83],
		"count":240,
		"byteOffset":0,
		"min":[0]
	},
	{
		"bufferView":15,
		"type":"VEC3",
		"componentType":5126,
		"max":[0.1213860735297203,
		0.1213860958814621,
		0.5155341625213623],
		"count":84,
		"byteOffset":0,
		"min":[-0.1213860735297203,
		-0.1213860958814621,
		-0.5155341625213623]
	},
	{
		"bufferView":15,
		"type":"VEC3",
		"componentType":5126,
		"max":[0.7026875615119934,
		0.7026875615119934,
		1.0],
		"count":84,
		"byteOffset":12,
		"min":[-0.7026875615119934,
		-0.7026875615119934,
		-1.0]
	},
	{
		"bufferView":15,
		"type":"VEC2",
		"componentType":5126,
		"max":[0.65625,
		1.0],
		"count":84,
		"byteOffset":24,
		"min":[0.3437499701976776,
		0.0]
	},
	{
		"bufferView":16,
		"type":"SCALAR",
		"componentType":5123,
		"max":[958],
		"count":5220,
		"byteOffset":0,
		"min":[0]
	},
	{
		"bufferView":17,
		"type":"VEC3",
		"componentType":5126,
		"max":[0.5,
		0.5,
		0.5],
		"count":959,
		"byteOffset":0,
		"min":[-0.5,
		-0.5,
		-0.5]
	},
	{
		"bufferView":17,
		"type":"VEC3",
		"componentType":5126,
		"max":[1.0,
		0.994437575340271,
		1.0],
		"count":959,
		"byteOffset":12,
		"min":[-1.0,
		-0.994437575340271,
		-1.0]
	},
	{
		"bufferView":17,
		"type":"VEC2",
		"componentType":5126,
		"max":[1.0000003576278687,
		1.0],
		"count":959,
		"byteOffset":24,
		"min":[0.0,
		0.0]
	},
	{
		"bufferView":18,
		"type":"SCALAR",
		"componentType":5123,
		"max":[958],
		"count":5220,
		"byteOffset":0,
		"min":[0]
	},
	{
		"bufferView":19,
		"type":"VEC3",
		"componentType":5126,
		"max":[0.5,
		0.5,
		0.5],
		"count":959,
		"byteOffset":0,
		"min":[-0.5,
		-0.5,
		-0.5]
	},
	{
		"bufferView":19,
		"type":"VEC3",
		"componentType":5126,
		"max":[1.0,
		0.994437575340271,
		1.0],
		"count":959,
		"byteOffset":12,
		"min":[-1.0,
		-0.994437575340271,
		-1.0]
	},
	{
		"bufferView":19,
		"type":"VEC2",
		"componentType":5126,
		"max":[1.0000003576278687,
		1.0],
		"count":959,
		"byteOffset":24,
		"min":[0.0,
		0.0]
	}],
	"bufferViews":[{
		"buffer":0,
		"byteOffset":0,
		"byteLength":12672,
		"target":34963
	},
	{
		"buffer":0,
		"byteOffset":12672,
		"byteLength":72896,
		"target":34962,
		"byteStride":32
	},
	{
		"buffer":1,
		"byteOffset":0,
		"byteLength":10440,
		"target":34963
	},
	{
		"buffer":1,
		"byteOffset":10440,
		"byteLength":30688,
		"target":34962,
		"byteStride":32
	},
	{
		"buffer":2,
		"byteOffset":0,
		"byteLength":10440,
		"target":34963
	},
	{
		"buffer":2,
		"byteOffset":10440,
		"byteLength":30688,
		"target":34962,
		"byteStride":32
	},
	{
		"buffer":3,
		"byteOffset":0,
		"byteLength":480,
		"target":34963
	},
	{
		"buffer":3,
		"byteOffset":480,
		"byteLength":2688,
		"target":34962,
		"byteStride":32
	},
	{
		"buffer":4,
		"byteOffset":0,
		"byteLength":480,
		"target":34963
	},
	{
		"buffer":4,
		"byteOffset":480,
		"byteLength":2688,
		"target":34962,
		"byteStride":32
	},
	{
		"buffer":5,
		"byteOffset":0,
		"byteLength":480,
		"target":34963
	},
	{
		"buffer":5,
		"byteOffset":480,
		"byteLength":2688,
		"target":34962,
		"byteStride":32
	},
	{
		"buffer":6,
		"byteOffset":0,
		"byteLength":480,
		"target":34963
	},
	{
		"buffer":6,
		"byteOffset":480,
		"byteLength":2688,
		"target":34962,
		"byteStride":32
	},
	{
		"buffer":7,
		"byteOffset":0,
		"byteLength":480,
		"target":34963
	},
	{
		"buffer":7,
		"byteOffset":480,
		"byteLength":2688,
		"target":34962,
		"byteStride":32
	},
	{
		"buffer":8,
		"byteOffset":0,
		"byteLength":10440,
		"target":34963
	},
	{
		"buffer":8,
		"byteOffset":10440,
		"byteLength":30688,
		"target":34962,
		"byteStride":32
	},
	{
		"buffer":9,
		"byteOffset":0,
		"byteLength":10440,
		"target":34963
	},
	{
		"buffer":9,
		"byteOffset":10440,
		"byteLength":30688,
		"target":34962,
		"byteStride":32
	}],
	"buffers":[{
		"uri":"data:application/octet-stream;base64,",
		"byteLength":85568
	},
	{
		"uri":"data:application/octet-stream;base64,",
		"byteLength":41128
	},
	{
		"uri":"data:application/octet-stream;base64,",
		"byteLength":41128
	},
	{
		"uri":"data:application/octet-stream;base64,",
		"byteLength":3168
	},
	{
		"uri":"data:application/octet-stream;base64,",
		"byteLength":3168
	},
	{
		"uri":"data:application/octet-stream;base64,",
		"byteLength":3168
	},
	{
		"uri":"data:application/octet-stream;base64,",
		"byteLength":3168
	},
	{
		"uri":"data:application/octet-stream;base64,",
		"byteLength":3168
	},
	{
		"uri":"data:application/octet-stream;base64,",
		"byteLength":41128
	},
	{
		"uri":"data:application/octet-stream;base64,",
		"byteLength":41128
	}],
	"images":[{
		"uri":"data:image/jpeg;base64,"
	},
	{
		"uri":"data:image/jpeg;base64,"
	}],
	"samplers":[{
		"magFilter":9729,
		"minFilter":9729,
		"wrapS":10497,
		"wrapT":10497
	},
	{
		"magFilter":9729,
		"minFilter":9729,
		"wrapS":10497,
		"wrapT":10497
	}],
	"textures":[{
		"sampler":0,
		"source":0
	},
	{
		"sampler":1,
		"source":1
	}],
	"materials":[{
		"pbrMetallicRoughness":{
			"baseColorFactor":[1.0,
			0.0,
			0.0,
			1.0],
			"metallicFactor":0.0,
			"roughnessFactor":0.5
		},
		"emissiveFactor":[0.0,
		0.0,
		0.0],
		"alphaMode":"OPAQUE",
		"doubleSided":true,
		"name":"Mat"
	},
	{
		"pbrMetallicRoughness":{
			"baseColorTexture":{
				"index":0
			},
			"baseColorFactor":[0.8,
			0.8,
			0.8,
			1.0],
			"metallicFactor":0.0,
			"roughnessFactor":0.5
		},
		"emissiveFactor":[0.0,
		0.0,
		0.0],
		"alphaMode":"OPAQUE",
		"doubleSided":true,
		"name":"Mat.2"
	},
	{
		"pbrMetallicRoughness":{
			"baseColorFactor":[0.46,
			0.46,
			0.46,
			1.0],
			"metallicFactor":0.0,
			"roughnessFactor":0.5
		},
		"emissiveFactor":[0.0,
		0.0,
		0.0],
		"alphaMode":"OPAQUE",
		"doubleSided":true,
		"name":"Mat"
	},
	{
		"pbrMetallicRoughness":{
			"baseColorTexture":{
				"index":1
			},
			"baseColorFactor":[0.8,
			0.8,
			0.8,
			1.0],
			"metallicFactor":0.0,
			"roughnessFactor":0.5
		},
		"emissiveFactor":[0.0,
		0.0,
		0.0],
		"alphaMode":"OPAQUE",
		"doubleSided":true,
		"name":"Mat.2"
	}]
}