{
	"accessors":[{
		"bufferView":0,
		"type":"SCALAR",
		"componentType":5123,
		"count":31320,
		"byteOffset":0,
		"min":[0],
		"max":[5753]
	},
	{
		"bufferView":1,
		"type":"VEC3",
		"componentType":5126,
		"count":5754,
		"byteOffset":0,
		"min":[-6.229462623596191,
		-1.73759925365448,
		-5.845982551574707],
		"max":[6.2446746826171879,
		0.5963563323020935,
		5.448894500732422]
	},
	{
		"bufferView":1,
		"type":"VEC3",
		"componentType":5126,
		"count":5754,
		"byteOffset":12,
		"min":[-0.9991779923439026,
		-0.9995779991149902,
		-0.9999025464057922],
		"max":[0.9991779327392578,
		0.9995798468589783,
		0.999902606010437]
	},
	{
		"bufferView":1,
		"type":"VEC2",
		"componentType":5126,
		"count":5754,
		"byteOffset":24,
		"min":[0.0,
		0.0],
		"max":[1.0000003576278687,
		1.0]
	},
	{
		"bufferView":2,
		"type":"SCALAR",
		"componentType":5123,
		"count":2880,
		"byteOffset":0,
		"min":[0],
		"max":[1007]
	},
	{
		"bufferView":3,
		"type":"VEC3",
		"componentType":5126,
		"count":1008,
		"byteOffset":0,
		"min":[-8.713777542114258,
		-0.9851666688919067,
		-7.936884880065918],
		"max":[8.78276252746582,
		-0.6005697846412659,
		7.464914321899414]
	},
	{
		"bufferView":3,
		"type":"VEC3",
		"componentType":5126,
		"count":1008,
		"byteOffset":12,
		"min":[-1.0,
		-0.9986092448234558,
		-0.9989563822746277],
		"max":[1.0,
		0.9986093044281006,
		0.9989564418792725]
	},
	{
		"bufferView":3,
		"type":"VEC2",
		"componentType":5126,
		"count":1008,
		"byteOffset":24,
		"min":[0.0,
		0.0],
		"max":[1.0,
		1.0]
	},
	{
		"bufferView":4,
		"type":"SCALAR",
		"componentType":5123,
		"count":31320,
		"byteOffset":0,
		"min":[0],
		"max":[5753]
	},
	{
		"bufferView":5,
		"type":"VEC3",
		"componentType":5126,
		"count":5754,
		"byteOffset":0,
		"min":[-9.640860557556153,
		-1.5423165559768677,
		-8.72542953491211],
		"max":[9.85042667388916,
		-0.04231591522693634,
		8.368318557739258]
	},
	{
		"bufferView":5,
		"type":"VEC3",
		"componentType":5126,
		"count":5754,
		"byteOffset":12,
		"min":[-0.9997002482414246,
		-0.9998680949211121,
		-0.9999447464942932],
		"max":[0.9997001886367798,
		0.9998680949211121,
		0.9999023079872131]
	},
	{
		"bufferView":5,
		"type":"VEC2",
		"componentType":5126,
		"count":5754,
		"byteOffset":24,
		"min":[0.0,
		0.0],
		"max":[1.0000003576278687,
		1.0]
	},
	{
		"bufferView":6,
		"type":"SCALAR",
		"componentType":5123,
		"count":7572,
		"byteOffset":0,
		"min":[0],
		"max":[2665]
	},
	{
		"bufferView":7,
		"type":"VEC3",
		"componentType":5126,
		"count":2666,
		"byteOffset":0,
		"min":[0.14650309085845948,
		-0.02233278751373291,
		0.0],
		"max":[7.183117866516113,
		1.2810087203979493,
		0.34576159715652468]
	},
	{
		"bufferView":7,
		"type":"VEC3",
		"componentType":5126,
		"count":2666,
		"byteOffset":12,
		"min":[-1.0,
		-1.0,
		-1.0],
		"max":[1.0,
		1.0,
		1.0]
	},
	{
		"bufferView":7,
		"type":"VEC2",
		"componentType":5126,
		"count":2666,
		"byteOffset":24,
		"min":[0.0,
		0.0],
		"max":[1.0,
		1.0]
	}],
	"asset":{
		"version":"2.0",
		"generator":"Created using the official Cinema 4D glTF Exporter 1.000x284978"
	},
	"scenes":[{
		"nodes":[0,
		1,
		2,
		3]
	}],
	"images":[{
		"uri":"data:image/jpeg;base64,"
	},
	{
		"uri":"data:image/jpeg;base64,"
	}],
	"nodes":[{
		"name":"pSphere9",
		"rotation":[-0.7071067690849304,
		0.0,
		0.0,
		-0.7071067690849304],
		"translation":[-0.11122829467058182,
		-0.24106648564338685,
		-0.08170685172080994],
		"scale":[1.0,
		1.0,
		1.0],
		"mesh":0
	},
	{
		"name":"pTorus3",
		"rotation":[-0.7071067690849304,
		0.0,
		0.0,
		-0.7071067690849304],
		"translation":[-0.11619062721729279,
		-0.4487091600894928,
		0.011915317736566067],
		"scale":[1.0,
		1.0,
		1.0],
		"mesh":1
	},
	{
		"name":"group14_pSphere8",
		"rotation":[-0.7071067690849304,
		0.0,
		0.0,
		-0.7071067690849304],
		"translation":[-0.11619062721729279,
		-0.4487091600894928,
		0.012492621317505837],
		"scale":[1.0,
		1.0,
		1.0],
		"mesh":2
	},
	{
		"name":"Extrude",
		"rotation":[0.0,
		0.0,
		0.0,
		-1.0],
		"translation":[-3.4407408237457277,
		-10.414118766784668,
		-0.16421744227409364],
		"scale":[1.0,
		1.0,
		1.0],
		"children":[4]
	},
	{
		"name":"Extrude",
		"mesh":3
	}],
	"meshes":[{
		"name":"pSphere9",
		"primitives":[{
			"attributes":{
				"POSITION":1,
				"NORMAL":2,
				"TEXCOORD_0":3
			},
			"indices":0,
			"material":0
		}]
	},
	{
		"name":"pTorus3",
		"primitives":[{
			"attributes":{
				"POSITION":5,
				"NORMAL":6,
				"TEXCOORD_0":7
			},
			"indices":4,
			"material":1
		}]
	},
	{
		"name":"group14_pSphere8",
		"primitives":[{
			"attributes":{
				"POSITION":9,
				"NORMAL":10,
				"TEXCOORD_0":11
			},
			"indices":8,
			"material":2
		}]
	},
	{
		"name":"Extrude",
		"primitives":[{
			"attributes":{
				"POSITION":13,
				"NORMAL":14,
				"TEXCOORD_0":15
			},
			"indices":12,
			"material":3
		}]
	}],
	"bufferViews":[{
		"buffer":0,
		"byteOffset":0,
		"byteLength":62640,
		"target":34963
	},
	{
		"buffer":0,
		"byteOffset":62640,
		"byteLength":184128,
		"target":34962,
		"byteStride":32
	},
	{
		"buffer":1,
		"byteOffset":0,
		"byteLength":5760,
		"target":34963
	},
	{
		"buffer":1,
		"byteOffset":5760,
		"byteLength":32256,
		"target":34962,
		"byteStride":32
	},
	{
		"buffer":2,
		"byteOffset":0,
		"byteLength":62640,
		"target":34963
	},
	{
		"buffer":2,
		"byteOffset":62640,
		"byteLength":184128,
		"target":34962,
		"byteStride":32
	},
	{
		"buffer":3,
		"byteOffset":0,
		"byteLength":15144,
		"target":34963
	},
	{
		"buffer":3,
		"byteOffset":15144,
		"byteLength":85312,
		"target":34962,
		"byteStride":32
	}],
	"buffers":[{
		"uri":"data:application/octet-stream;base64,",
		"byteLength":246768
	},
	{
		"uri":"data:application/octet-stream;base64,",
		"byteLength":38016
	},
	{
		"uri":"data:application/octet-stream;base64,",
		"byteLength":246768
	},
	{
		"uri":"data:application/octet-stream;base64,",
		"byteLength":100456
	}],
	"samplers":[{
		"magFilter":9729,
		"minFilter":9729,
		"wrapT":10497,
		"wrapS":10497
	},
	{
		"magFilter":9729,
		"minFilter":9729,
		"wrapT":10497,
		"wrapS":10497
	}],
	"textures":[{
		"sampler":0,
		"source":0
	},
	{
		"sampler":1,
		"source":1
	}],
	"materials":[{
		"pbrMetallicRoughness":{
			"baseColorTexture":{
				"index":0
			},
			"baseColorFactor":[0.8,
			0.8,
			0.8,
			1.0],
			"metallicFactor":0.0,
			"roughnessFactor":0.5
		},
		"emissiveFactor":[0.0,
		0.0,
		0.0],
		"alphaMode":"OPAQUE",
		"doubleSided":true,
		"name":"Mat.2"
	},
	{
		"pbrMetallicRoughness":{
			"baseColorFactor":[0.46,
			0.46,
			0.46,
			1.0],
			"metallicFactor":0.0,
			"roughnessFactor":0.5
		},
		"emissiveFactor":[0.0,
		0.0,
		0.0],
		"alphaMode":"OPAQUE",
		"doubleSided":true,
		"name":"Mat"
	},
	{
		"pbrMetallicRoughness":{
			"baseColorTexture":{
				"index":1
			},
			"baseColorFactor":[0.8,
			0.8,
			0.8,
			1.0],
			"metallicFactor":0.0,
			"roughnessFactor":0.5
		},
		"emissiveFactor":[0.0,
		0.0,
		0.0],
		"alphaMode":"OPAQUE",
		"doubleSided":true,
		"name":"Mat.2"
	},
	{
		"pbrMetallicRoughness":{
			"baseColorFactor":[1.0,
			0.0,
			0.0,
			1.0],
			"metallicFactor":0.0,
			"roughnessFactor":0.5
		},
		"emissiveFactor":[0.0,
		0.0,
		0.0],
		"alphaMode":"OPAQUE",
		"doubleSided":true,
		"name":"Mat"
	}]
}