{
	"buffers":[{
		"uri":"data:application/octet-stream;base64,",
		"byteLength":36608
	},
	{
		"uri":"data:application/octet-stream;base64,",
		"byteLength":6020
	},
	{
		"uri":"data:application/octet-stream;base64,",
		"byteLength":36608
	},
	{
		"uri":"data:application/octet-stream;base64,",
		"byteLength":6020
	},
	{
		"uri":"data:application/octet-stream;base64,",
		"byteLength":36608
	},
	{
		"uri":"data:application/octet-stream;base64,",
		"byteLength":6020
	},
	{
		"uri":"data:application/octet-stream;base64,",
		"byteLength":36608
	},
	{
		"uri":"data:application/octet-stream;base64,",
		"byteLength":6020
	},
	{
		"uri":"data:application/octet-stream;base64,",
		"byteLength":36608
	},
	{
		"uri":"data:application/octet-stream;base64,",
		"byteLength":6020
	},
	{
		"uri":"data:application/octet-stream;base64,",
		"byteLength":36608
	},
	{
		"uri":"data:application/octet-stream;base64,",
		"byteLength":6020
	},
	{
		"uri":"data:application/octet-stream;base64,",
		"byteLength":36608
	},
	{
		"uri":"data:application/octet-stream;base64,",
		"byteLength":6020
	},
	{
		"uri":"data:application/octet-stream;base64,",
		"byteLength":36608
	},
	{
		"uri":"data:application/octet-stream;base64,",
		"byteLength":6020
	},
	{
		"uri":"data:application/octet-stream;base64,",
		"byteLength":36608
	},
	{
		"uri":"data:application/octet-stream;base64,",
		"byteLength":6020
	},
	{
		"uri":"data:application/octet-stream;base64,",
		"byteLength":36608
	},
	{
		"uri":"data:application/octet-stream;base64,",
		"byteLength":74144
	},
	{
		"uri":"data:application/octet-stream;base64,",
		"byteLength":74144
	},
	{
		"uri":"data:application/octet-stream;base64,",
		"byteLength":74144
	}],
	"asset":{
		"version":"2.0",
		"generator":"Created using the official Cinema 4D glTF Exporter 1.000x284978"
	},
	"scenes":[{
		"nodes":[0,
		1,
		2,
		3,
		4,
		5,
		6,
		7,
		8,
		9,
		10,
		11,
		12]
	}],
	"nodes":[{
		"name":"3",
		"rotation":[0.0,
		0.0,
		0.0,
		-1.0],
		"translation":[0.0,
		0.0,
		0.0],
		"scale":[1.0,
		1.0,
		1.0],
		"mesh":0
	},
	{
		"name":"2d",
		"rotation":[0.0,
		0.0,
		0.0,
		-1.0],
		"translation":[0.0,
		0.0,
		0.0],
		"scale":[1.0,
		1.0,
		1.0],
		"mesh":1
	},
	{
		"name":"2a",
		"rotation":[0.0,
		0.0,
		0.0,
		-1.0],
		"translation":[0.0,
		0.0,
		0.0],
		"scale":[1.0,
		1.0,
		1.0],
		"mesh":2
	},
	{
		"name":"2e",
		"rotation":[0.0,
		0.0,
		0.0,
		-1.0],
		"translation":[0.0,
		0.0,
		0.0],
		"scale":[1.0,
		1.0,
		1.0],
		"mesh":3
	},
	{
		"name":"2",
		"rotation":[0.0,
		0.0,
		0.0,
		-1.0],
		"translation":[0.0,
		0.0,
		0.0],
		"scale":[1.0,
		1.0,
		1.0],
		"mesh":4
	},
	{
		"name":"2b",
		"rotation":[0.0,
		0.0,
		0.0,
		-1.0],
		"translation":[0.0,
		0.0,
		0.0],
		"scale":[1.0,
		1.0,
		1.0],
		"mesh":5
	},
	{
		"name":"2c",
		"rotation":[0.0,
		0.0,
		0.0,
		-1.0],
		"translation":[0.0,
		0.0,
		0.0],
		"scale":[1.0,
		1.0,
		1.0],
		"mesh":6
	},
	{
		"name":"1a",
		"rotation":[0.0,
		0.0,
		0.0,
		-1.0],
		"translation":[0.0,
		0.0,
		0.0],
		"scale":[1.0,
		1.0,
		1.0],
		"mesh":7
	},
	{
		"name":"1",
		"rotation":[0.0,
		0.0,
		0.0,
		-1.0],
		"translation":[0.0,
		0.0,
		0.0],
		"scale":[1.0,
		1.0,
		1.0],
		"mesh":8
	},
	{
		"name":"nhan",
		"rotation":[0.0,
		0.0,
		0.0,
		-1.0],
		"translation":[0.0,
		-0.3019636869430542,
		-0.6950904726982117],
		"scale":[1.0,
		1.0,
		1.0],
		"mesh":9
	},
	{
		"name":"Torus.2",
		"rotation":[0.0,
		0.0,
		0.0,
		-1.0],
		"translation":[0.0,
		0.6950904726982117,
		-0.3019636869430542],
		"scale":[1.0,
		1.0,
		1.0],
		"mesh":10
	},
	{
		"name":"Torus.1",
		"rotation":[0.0,
		0.0,
		0.0,
		-1.0],
		"translation":[0.0,
		0.6950904726982117,
		-0.3019636869430542],
		"scale":[1.0,
		1.0,
		1.0],
		"mesh":11
	},
	{
		"name":"Torus",
		"rotation":[0.0,
		0.0,
		0.0,
		-1.0],
		"translation":[0.0,
		0.6950904726982117,
		-0.3019636869430542],
		"scale":[1.0,
		1.0,
		1.0],
		"mesh":12
	}],
	"meshes":[{
		"name":"3",
		"primitives":[{
			"attributes":{
				"POSITION":1,
				"NORMAL":2,
				"TEXCOORD_0":3
			},
			"indices":0,
			"material":0
		}]
	},
	{
		"name":"2d",
		"primitives":[{
			"attributes":{
				"POSITION":7,
				"NORMAL":8,
				"TEXCOORD_0":9
			},
			"indices":6,
			"material":0
		}]
	},
	{
		"name":"2a",
		"primitives":[{
			"attributes":{
				"POSITION":13,
				"NORMAL":14,
				"TEXCOORD_0":15
			},
			"indices":12,
			"material":0
		}]
	},
	{
		"name":"2e",
		"primitives":[{
			"attributes":{
				"POSITION":19,
				"NORMAL":20,
				"TEXCOORD_0":21
			},
			"indices":18,
			"material":0
		}]
	},
	{
		"name":"2",
		"primitives":[{
			"attributes":{
				"POSITION":25,
				"NORMAL":26,
				"TEXCOORD_0":27
			},
			"indices":24,
			"material":0
		}]
	},
	{
		"name":"2b",
		"primitives":[{
			"attributes":{
				"POSITION":31,
				"NORMAL":32,
				"TEXCOORD_0":33
			},
			"indices":30,
			"material":0
		}]
	},
	{
		"name":"2c",
		"primitives":[{
			"attributes":{
				"POSITION":37,
				"NORMAL":38,
				"TEXCOORD_0":39
			},
			"indices":36,
			"material":0
		}]
	},
	{
		"name":"1a",
		"primitives":[{
			"attributes":{
				"POSITION":43,
				"NORMAL":44,
				"TEXCOORD_0":45
			},
			"indices":42,
			"material":0
		}]
	},
	{
		"name":"1",
		"primitives":[{
			"attributes":{
				"POSITION":49,
				"NORMAL":50,
				"TEXCOORD_0":51
			},
			"indices":48,
			"material":0
		}]
	},
	{
		"name":"nhan",
		"primitives":[{
			"attributes":{
				"POSITION":55,
				"NORMAL":56,
				"TEXCOORD_0":57
			},
			"indices":54,
			"material":1
		}]
	},
	{
		"name":"Torus.2",
		"primitives":[{
			"attributes":{
				"POSITION":59,
				"NORMAL":60,
				"TEXCOORD_0":61
			},
			"indices":58
		}]
	},
	{
		"name":"Torus.1",
		"primitives":[{
			"attributes":{
				"POSITION":63,
				"NORMAL":64,
				"TEXCOORD_0":65
			},
			"indices":62
		}]
	},
	{
		"name":"Torus",
		"primitives":[{
			"attributes":{
				"POSITION":67,
				"NORMAL":68,
				"TEXCOORD_0":69
			},
			"indices":66
		}]
	}],
	"accessors":[{
		"type":"SCALAR",
		"bufferView":0,
		"componentType":5123,
		"count":4560,
		"byteOffset":0,
		"min":[0],
		"max":[858]
	},
	{
		"type":"VEC3",
		"bufferView":1,
		"componentType":5126,
		"count":859,
		"byteOffset":0,
		"min":[1229.39501953125,
		-27.16017723083496,
		-1139.0877685546876],
		"max":[1312.79541015625,
		56.24021911621094,
		-1055.6873779296876]
	},
	{
		"type":"VEC3",
		"bufferView":1,
		"componentType":5126,
		"count":859,
		"byteOffset":12,
		"min":[-1.0,
		-1.0,
		-1.0],
		"max":[1.0,
		1.0,
		1.0]
	},
	{
		"type":"VEC2",
		"bufferView":1,
		"componentType":5126,
		"count":859,
		"byteOffset":24,
		"min":[0.0,
		0.0],
		"max":[1.0,
		1.0]
	},
	{
		"type":"SCALAR",
		"bufferView":2,
		"componentType":5126,
		"count":301,
		"byteOffset":0,
		"min":[0.0],
		"max":[10.0]
	},
	{
		"type":"VEC4",
		"bufferView":2,
		"componentType":5126,
		"count":301,
		"byteOffset":1204,
		"min":[0.0,
		-0.9999898672103882,
		-7.448942795917901e-9,
		-1.0],
		"max":[7.443356153657987e-9,
		0.0,
		6.469364599581695e-9,
		1.0]
	},
	{
		"type":"SCALAR",
		"bufferView":3,
		"componentType":5123,
		"count":4560,
		"byteOffset":0,
		"min":[0],
		"max":[858]
	},
	{
		"type":"VEC3",
		"bufferView":4,
		"componentType":5126,
		"count":859,
		"byteOffset":0,
		"min":[502.4722595214844,
		-27.16017723083496,
		469.0097961425781],
		"max":[585.8726196289063,
		56.24021911621094,
		552.41015625]
	},
	{
		"type":"VEC3",
		"bufferView":4,
		"componentType":5126,
		"count":859,
		"byteOffset":12,
		"min":[-0.9999999403953552,
		-1.0,
		-0.9999999403953552],
		"max":[1.0,
		1.0,
		1.0]
	},
	{
		"type":"VEC2",
		"bufferView":4,
		"componentType":5126,
		"count":859,
		"byteOffset":24,
		"min":[0.0,
		0.0],
		"max":[1.0,
		1.0]
	},
	{
		"type":"SCALAR",
		"bufferView":5,
		"componentType":5126,
		"count":301,
		"byteOffset":0,
		"min":[0.0],
		"max":[10.0]
	},
	{
		"type":"VEC4",
		"bufferView":5,
		"componentType":5126,
		"count":301,
		"byteOffset":1204,
		"min":[0.0,
		-0.9999898672103882,
		-7.448942795917901e-9,
		-1.0],
		"max":[7.443356153657987e-9,
		0.0,
		6.469364599581695e-9,
		1.0]
	},
	{
		"type":"SCALAR",
		"bufferView":6,
		"componentType":5123,
		"count":4560,
		"byteOffset":0,
		"min":[0],
		"max":[858]
	},
	{
		"type":"VEC3",
		"bufferView":7,
		"componentType":5126,
		"count":859,
		"byteOffset":0,
		"min":[-645.6284790039063,
		-27.16017723083496,
		-480.78173828125],
		"max":[-562.2280883789063,
		56.24021911621094,
		-397.38134765625]
	},
	{
		"type":"VEC3",
		"bufferView":7,
		"componentType":5126,
		"count":859,
		"byteOffset":12,
		"min":[-1.0,
		-1.0,
		-0.9999999403953552],
		"max":[1.0,
		1.0,
		0.9999999403953552]
	},
	{
		"type":"VEC2",
		"bufferView":7,
		"componentType":5126,
		"count":859,
		"byteOffset":24,
		"min":[0.0,
		0.0],
		"max":[1.0,
		1.0]
	},
	{
		"type":"SCALAR",
		"bufferView":8,
		"componentType":5126,
		"count":301,
		"byteOffset":0,
		"min":[0.0],
		"max":[10.0]
	},
	{
		"type":"VEC4",
		"bufferView":8,
		"componentType":5126,
		"count":301,
		"byteOffset":1204,
		"min":[0.0,
		-0.9999898672103882,
		-7.448942795917901e-9,
		-1.0],
		"max":[7.443356153657987e-9,
		0.0,
		6.469364599581695e-9,
		1.0]
	},
	{
		"type":"SCALAR",
		"bufferView":9,
		"componentType":5123,
		"count":4560,
		"byteOffset":0,
		"min":[0],
		"max":[858]
	},
	{
		"type":"VEC3",
		"bufferView":10,
		"componentType":5126,
		"count":859,
		"byteOffset":0,
		"min":[-41.7001953125,
		-27.16017723083496,
		704.4942626953125],
		"max":[41.7001953125,
		56.24021911621094,
		787.8946533203125]
	},
	{
		"type":"VEC3",
		"bufferView":10,
		"componentType":5126,
		"count":859,
		"byteOffset":12,
		"min":[-0.9999999403953552,
		-1.0,
		-1.0],
		"max":[0.9999999403953552,
		1.0,
		1.0]
	},
	{
		"type":"VEC2",
		"bufferView":10,
		"componentType":5126,
		"count":859,
		"byteOffset":24,
		"min":[0.0,
		0.0],
		"max":[1.0,
		1.0]
	},
	{
		"type":"SCALAR",
		"bufferView":11,
		"componentType":5126,
		"count":301,
		"byteOffset":0,
		"min":[0.0],
		"max":[10.0]
	},
	{
		"type":"VEC4",
		"bufferView":11,
		"componentType":5126,
		"count":301,
		"byteOffset":1204,
		"min":[0.0,
		-0.9999898672103882,
		-7.448942795917901e-9,
		-1.0],
		"max":[7.443356153657987e-9,
		0.0,
		6.469364599581695e-9,
		1.0]
	},
	{
		"type":"SCALAR",
		"bufferView":12,
		"componentType":5123,
		"count":4560,
		"byteOffset":0,
		"min":[0],
		"max":[858]
	},
	{
		"type":"VEC3",
		"bufferView":13,
		"componentType":5126,
		"count":859,
		"byteOffset":0,
		"min":[-41.7001953125,
		-27.16017723083496,
		-788.49853515625],
		"max":[41.7001953125,
		56.24021911621094,
		-705.09814453125]
	},
	{
		"type":"VEC3",
		"bufferView":13,
		"componentType":5126,
		"count":859,
		"byteOffset":12,
		"min":[-0.9999999403953552,
		-1.0,
		-1.0],
		"max":[0.9999999403953552,
		1.0,
		1.0]
	},
	{
		"type":"VEC2",
		"bufferView":13,
		"componentType":5126,
		"count":859,
		"byteOffset":24,
		"min":[0.0,
		0.0],
		"max":[1.0,
		1.0]
	},
	{
		"type":"SCALAR",
		"bufferView":14,
		"componentType":5126,
		"count":301,
		"byteOffset":0,
		"min":[0.0],
		"max":[10.0]
	},
	{
		"type":"VEC4",
		"bufferView":14,
		"componentType":5126,
		"count":301,
		"byteOffset":1204,
		"min":[0.0,
		-0.9999898672103882,
		-7.448942795917901e-9,
		-1.0],
		"max":[7.443356153657987e-9,
		0.0,
		6.469364599581695e-9,
		1.0]
	},
	{
		"type":"SCALAR",
		"bufferView":15,
		"componentType":5123,
		"count":4560,
		"byteOffset":0,
		"min":[0],
		"max":[858]
	},
	{
		"type":"VEC3",
		"bufferView":16,
		"componentType":5126,
		"count":859,
		"byteOffset":0,
		"min":[-787.0401611328125,
		-27.16017723083496,
		-2.819017171859741],
		"max":[-703.6397705078125,
		56.24021911621094,
		80.58137512207031]
	},
	{
		"type":"VEC3",
		"bufferView":16,
		"componentType":5126,
		"count":859,
		"byteOffset":12,
		"min":[-1.0,
		-1.0,
		-0.9999999403953552],
		"max":[1.0,
		1.0,
		0.9999999403953552]
	},
	{
		"type":"VEC2",
		"bufferView":16,
		"componentType":5126,
		"count":859,
		"byteOffset":24,
		"min":[0.0,
		0.0],
		"max":[1.0,
		1.0]
	},
	{
		"type":"SCALAR",
		"bufferView":17,
		"componentType":5126,
		"count":301,
		"byteOffset":0,
		"min":[0.0],
		"max":[10.0]
	},
	{
		"type":"VEC4",
		"bufferView":17,
		"componentType":5126,
		"count":301,
		"byteOffset":1204,
		"min":[0.0,
		-0.9999898672103882,
		-7.448942795917901e-9,
		-1.0],
		"max":[7.443356153657987e-9,
		0.0,
		6.469364599581695e-9,
		1.0]
	},
	{
		"type":"SCALAR",
		"bufferView":18,
		"componentType":5123,
		"count":4560,
		"byteOffset":0,
		"min":[0],
		"max":[858]
	},
	{
		"type":"VEC3",
		"bufferView":19,
		"componentType":5126,
		"count":859,
		"byteOffset":0,
		"min":[703.9320678710938,
		-27.16017723083496,
		-82.7578125],
		"max":[787.3324584960938,
		56.24021911621094,
		0.6425825357437134]
	},
	{
		"type":"VEC3",
		"bufferView":19,
		"componentType":5126,
		"count":859,
		"byteOffset":12,
		"min":[-1.0,
		-1.0,
		-0.9999999403953552],
		"max":[1.0,
		1.0,
		0.9999999403953552]
	},
	{
		"type":"VEC2",
		"bufferView":19,
		"componentType":5126,
		"count":859,
		"byteOffset":24,
		"min":[0.0,
		0.0],
		"max":[1.0,
		1.0]
	},
	{
		"type":"SCALAR",
		"bufferView":20,
		"componentType":5126,
		"count":301,
		"byteOffset":0,
		"min":[0.0],
		"max":[10.0]
	},
	{
		"type":"VEC4",
		"bufferView":20,
		"componentType":5126,
		"count":301,
		"byteOffset":1204,
		"min":[0.0,
		-0.9999898672103882,
		-7.448942795917901e-9,
		-1.0],
		"max":[7.443356153657987e-9,
		0.0,
		6.469364599581695e-9,
		1.0]
	},
	{
		"type":"SCALAR",
		"bufferView":21,
		"componentType":5123,
		"count":4560,
		"byteOffset":0,
		"min":[0],
		"max":[858]
	},
	{
		"type":"VEC3",
		"bufferView":22,
		"componentType":5126,
		"count":859,
		"byteOffset":0,
		"min":[-167.06968688964845,
		-27.16017723083496,
		93.41429138183594],
		"max":[-83.6692886352539,
		56.24021911621094,
		176.81468200683595]
	},
	{
		"type":"VEC3",
		"bufferView":22,
		"componentType":5126,
		"count":859,
		"byteOffset":12,
		"min":[-0.9999999403953552,
		-1.0,
		-0.9999999403953552],
		"max":[0.9999999403953552,
		1.0,
		0.9999999403953552]
	},
	{
		"type":"VEC2",
		"bufferView":22,
		"componentType":5126,
		"count":859,
		"byteOffset":24,
		"min":[0.0,
		0.0],
		"max":[1.0,
		1.0]
	},
	{
		"type":"SCALAR",
		"bufferView":23,
		"componentType":5126,
		"count":301,
		"byteOffset":0,
		"min":[0.0],
		"max":[10.0]
	},
	{
		"type":"VEC4",
		"bufferView":23,
		"componentType":5126,
		"count":301,
		"byteOffset":1204,
		"min":[0.0,
		-0.9999898672103882,
		-7.425567716268233e-9,
		-1.0],
		"max":[7.449613370624775e-9,
		0.0,
		1.1467894411865132e-9,
		1.0]
	},
	{
		"type":"SCALAR",
		"bufferView":24,
		"componentType":5123,
		"count":4560,
		"byteOffset":0,
		"min":[0],
		"max":[858]
	},
	{
		"type":"VEC3",
		"bufferView":25,
		"componentType":5126,
		"count":859,
		"byteOffset":0,
		"min":[78.6131591796875,
		-27.16017723083496,
		-182.25392150878907],
		"max":[162.0135498046875,
		56.24021911621094,
		-98.85352325439453]
	},
	{
		"type":"VEC3",
		"bufferView":25,
		"componentType":5126,
		"count":859,
		"byteOffset":12,
		"min":[-0.9999999403953552,
		-1.0,
		-0.9999999403953552],
		"max":[0.9999999403953552,
		1.0,
		0.9999999403953552]
	},
	{
		"type":"VEC2",
		"bufferView":25,
		"componentType":5126,
		"count":859,
		"byteOffset":24,
		"min":[0.0,
		0.0],
		"max":[1.0,
		1.0]
	},
	{
		"type":"SCALAR",
		"bufferView":26,
		"componentType":5126,
		"count":301,
		"byteOffset":0,
		"min":[0.0],
		"max":[10.0]
	},
	{
		"type":"VEC4",
		"bufferView":26,
		"componentType":5126,
		"count":301,
		"byteOffset":1204,
		"min":[0.0,
		-0.9999898672103882,
		-7.425567716268233e-9,
		-1.0],
		"max":[7.449613370624775e-9,
		0.0,
		1.1467894411865132e-9,
		1.0]
	},
	{
		"type":"SCALAR",
		"bufferView":27,
		"componentType":5123,
		"count":4560,
		"byteOffset":0,
		"min":[0],
		"max":[858]
	},
	{
		"type":"VEC3",
		"bufferView":28,
		"componentType":5126,
		"count":859,
		"byteOffset":0,
		"min":[-68.0,
		-68.0,
		-68.0],
		"max":[68.0,
		68.0,
		68.0]
	},
	{
		"type":"VEC3",
		"bufferView":28,
		"componentType":5126,
		"count":859,
		"byteOffset":12,
		"min":[-0.9999999403953552,
		-1.0,
		-0.9999999403953552],
		"max":[0.9999999403953552,
		1.0,
		0.9999999403953552]
	},
	{
		"type":"VEC2",
		"bufferView":28,
		"componentType":5126,
		"count":859,
		"byteOffset":24,
		"min":[0.0,
		0.0],
		"max":[1.0,
		1.0]
	},
	{
		"type":"SCALAR",
		"bufferView":29,
		"componentType":5123,
		"count":9600,
		"byteOffset":0,
		"min":[0],
		"max":[1716]
	},
	{
		"type":"VEC3",
		"bufferView":30,
		"componentType":5126,
		"count":1717,
		"byteOffset":0,
		"min":[-750.0,
		-3.503605365753174,
		-750.0],
		"max":[750.0,
		3.503605365753174,
		750.0]
	},
	{
		"type":"VEC3",
		"bufferView":30,
		"componentType":5126,
		"count":1717,
		"byteOffset":12,
		"min":[-1.0,
		-0.9999979138374329,
		-1.0],
		"max":[1.0,
		0.9999979138374329,
		1.0]
	},
	{
		"type":"VEC2",
		"bufferView":30,
		"componentType":5126,
		"count":1717,
		"byteOffset":24,
		"min":[0.0,
		0.0],
		"max":[1.0,
		1.0]
	},
	{
		"type":"SCALAR",
		"bufferView":31,
		"componentType":5123,
		"count":9600,
		"byteOffset":0,
		"min":[0],
		"max":[1716]
	},
	{
		"type":"VEC3",
		"bufferView":32,
		"componentType":5126,
		"count":1717,
		"byteOffset":0,
		"min":[-187.9416046142578,
		-1.541525959968567,
		-187.9416046142578],
		"max":[187.9416046142578,
		1.541525959968567,
		187.9416046142578]
	},
	{
		"type":"VEC3",
		"bufferView":32,
		"componentType":5126,
		"count":1717,
		"byteOffset":12,
		"min":[-1.0,
		-0.9999978542327881,
		-1.0],
		"max":[1.0,
		0.9999978542327881,
		1.0]
	},
	{
		"type":"VEC2",
		"bufferView":32,
		"componentType":5126,
		"count":1717,
		"byteOffset":24,
		"min":[0.0,
		0.0],
		"max":[1.0,
		1.0]
	},
	{
		"type":"SCALAR",
		"bufferView":33,
		"componentType":5123,
		"count":9600,
		"byteOffset":0,
		"min":[0],
		"max":[1716]
	},
	{
		"type":"VEC3",
		"bufferView":34,
		"componentType":5126,
		"count":1717,
		"byteOffset":0,
		"min":[-1687.5,
		-7.643445014953613,
		-1687.5],
		"max":[1687.5,
		7.643445014953613,
		1687.5]
	},
	{
		"type":"VEC3",
		"bufferView":34,
		"componentType":5126,
		"count":1717,
		"byteOffset":12,
		"min":[-1.0,
		-0.9999979138374329,
		-1.0],
		"max":[1.0,
		0.9999979138374329,
		1.0]
	},
	{
		"type":"VEC2",
		"bufferView":34,
		"componentType":5126,
		"count":1717,
		"byteOffset":24,
		"min":[0.0,
		0.0],
		"max":[1.0,
		1.0]
	}],
	"bufferViews":[{
		"buffer":0,
		"byteOffset":0,
		"byteLength":9120,
		"target":34963
	},
	{
		"buffer":0,
		"byteOffset":9120,
		"byteLength":27488,
		"target":34962,
		"byteStride":32
	},
	{
		"buffer":1,
		"byteOffset":0,
		"byteLength":6020
	},
	{
		"buffer":2,
		"byteOffset":0,
		"byteLength":9120,
		"target":34963
	},
	{
		"buffer":2,
		"byteOffset":9120,
		"byteLength":27488,
		"target":34962,
		"byteStride":32
	},
	{
		"buffer":3,
		"byteOffset":0,
		"byteLength":6020
	},
	{
		"buffer":4,
		"byteOffset":0,
		"byteLength":9120,
		"target":34963
	},
	{
		"buffer":4,
		"byteOffset":9120,
		"byteLength":27488,
		"target":34962,
		"byteStride":32
	},
	{
		"buffer":5,
		"byteOffset":0,
		"byteLength":6020
	},
	{
		"buffer":6,
		"byteOffset":0,
		"byteLength":9120,
		"target":34963
	},
	{
		"buffer":6,
		"byteOffset":9120,
		"byteLength":27488,
		"target":34962,
		"byteStride":32
	},
	{
		"buffer":7,
		"byteOffset":0,
		"byteLength":6020
	},
	{
		"buffer":8,
		"byteOffset":0,
		"byteLength":9120,
		"target":34963
	},
	{
		"buffer":8,
		"byteOffset":9120,
		"byteLength":27488,
		"target":34962,
		"byteStride":32
	},
	{
		"buffer":9,
		"byteOffset":0,
		"byteLength":6020
	},
	{
		"buffer":10,
		"byteOffset":0,
		"byteLength":9120,
		"target":34963
	},
	{
		"buffer":10,
		"byteOffset":9120,
		"byteLength":27488,
		"target":34962,
		"byteStride":32
	},
	{
		"buffer":11,
		"byteOffset":0,
		"byteLength":6020
	},
	{
		"buffer":12,
		"byteOffset":0,
		"byteLength":9120,
		"target":34963
	},
	{
		"buffer":12,
		"byteOffset":9120,
		"byteLength":27488,
		"target":34962,
		"byteStride":32
	},
	{
		"buffer":13,
		"byteOffset":0,
		"byteLength":6020
	},
	{
		"buffer":14,
		"byteOffset":0,
		"byteLength":9120,
		"target":34963
	},
	{
		"buffer":14,
		"byteOffset":9120,
		"byteLength":27488,
		"target":34962,
		"byteStride":32
	},
	{
		"buffer":15,
		"byteOffset":0,
		"byteLength":6020
	},
	{
		"buffer":16,
		"byteOffset":0,
		"byteLength":9120,
		"target":34963
	},
	{
		"buffer":16,
		"byteOffset":9120,
		"byteLength":27488,
		"target":34962,
		"byteStride":32
	},
	{
		"buffer":17,
		"byteOffset":0,
		"byteLength":6020
	},
	{
		"buffer":18,
		"byteOffset":0,
		"byteLength":9120,
		"target":34963
	},
	{
		"buffer":18,
		"byteOffset":9120,
		"byteLength":27488,
		"target":34962,
		"byteStride":32
	},
	{
		"buffer":19,
		"byteOffset":0,
		"byteLength":19200,
		"target":34963
	},
	{
		"buffer":19,
		"byteOffset":19200,
		"byteLength":54944,
		"target":34962,
		"byteStride":32
	},
	{
		"buffer":20,
		"byteOffset":0,
		"byteLength":19200,
		"target":34963
	},
	{
		"buffer":20,
		"byteOffset":19200,
		"byteLength":54944,
		"target":34962,
		"byteStride":32
	},
	{
		"buffer":21,
		"byteOffset":0,
		"byteLength":19200,
		"target":34963
	},
	{
		"buffer":21,
		"byteOffset":19200,
		"byteLength":54944,
		"target":34962,
		"byteStride":32
	}],
	"materials":[{
		"pbrMetallicRoughness":{
			"baseColorFactor":[0.09333333333333371,
			0.0,
			0.8,
			1.0],
			"metallicFactor":0.0,
			"roughnessFactor":0.5
		},
		"emissiveFactor":[0.0,
		0.0,
		0.0],
		"alphaMode":"OPAQUE",
		"doubleSided":true,
		"name":"Mat.1"
	},
	{
		"pbrMetallicRoughness":{
			"baseColorFactor":[0.8,
			0.0,
			0.0,
			1.0],
			"metallicFactor":0.0,
			"roughnessFactor":0.5
		},
		"emissiveFactor":[0.0,
		0.0,
		0.0],
		"alphaMode":"OPAQUE",
		"doubleSided":true,
		"name":"Mat"
	}],
	"animations":[{
		"samplers":[{
			"input":4,
			"interpolation":"LINEAR",
			"output":5
		},
		{
			"input":10,
			"interpolation":"LINEAR",
			"output":11
		},
		{
			"input":16,
			"interpolation":"LINEAR",
			"output":17
		},
		{
			"input":22,
			"interpolation":"LINEAR",
			"output":23
		},
		{
			"input":28,
			"interpolation":"LINEAR",
			"output":29
		},
		{
			"input":34,
			"interpolation":"LINEAR",
			"output":35
		},
		{
			"input":40,
			"interpolation":"LINEAR",
			"output":41
		},
		{
			"input":46,
			"interpolation":"LINEAR",
			"output":47
		},
		{
			"input":52,
			"interpolation":"LINEAR",
			"output":53
		}],
		"channels":[{
			"target":{
				"node":0,
				"path":"rotation"
			},
			"sampler":0
		},
		{
			"target":{
				"node":1,
				"path":"rotation"
			},
			"sampler":1
		},
		{
			"target":{
				"node":2,
				"path":"rotation"
			},
			"sampler":2
		},
		{
			"target":{
				"node":3,
				"path":"rotation"
			},
			"sampler":3
		},
		{
			"target":{
				"node":4,
				"path":"rotation"
			},
			"sampler":4
		},
		{
			"target":{
				"node":5,
				"path":"rotation"
			},
			"sampler":5
		},
		{
			"target":{
				"node":6,
				"path":"rotation"
			},
			"sampler":6
		},
		{
			"target":{
				"node":7,
				"path":"rotation"
			},
			"sampler":7
		},
		{
			"target":{
				"node":8,
				"path":"rotation"
			},
			"sampler":8
		}]
	}]
}